<svg width="686" height="548" viewBox="0 0 686 548" fill="none" xmlns="http://www.w3.org/2000/svg">
<mask id="mask0_1999_3454" style="mask-type:luminance" maskUnits="userSpaceOnUse" x="0" y="0" width="686" height="548">
<path d="M685.381 0.000244141H0.589844V547.833H685.381V0.000244141Z" fill="white"/>
</mask>
<g mask="url(#mask0_1999_3454)">
<path d="M416.494 209.896C404.005 223.309 393.021 228.623 387.006 230.688C384.465 231.556 381.747 229.978 381.224 227.344V227.269C380.785 225.102 382.037 222.982 384.11 222.225C396.823 217.62 402.819 206.076 405.621 197.053C406.789 193.298 402.838 190.029 399.335 191.822C394.123 194.493 389.827 194.167 385.997 194.213C383.494 194.251 381.448 192.233 381.476 189.739V188.889C381.504 186.582 383.307 184.677 385.605 184.509L433.101 181.193C435.66 181.015 437.846 183.042 437.846 185.611V241.887C437.846 244.334 435.866 246.323 433.409 246.323H414.99C411.151 246.323 409.105 241.765 411.693 238.926C419.436 230.445 422.752 221.104 424.097 213.697C424.891 209.317 419.511 206.627 416.475 209.886L416.494 209.896Z" fill="url(#paint0_linear_1999_3454)"/>
<path d="M402.354 194.056C403.064 192.542 401.177 191.141 399.935 192.272C390.071 201.238 381.506 205.003 375.724 206.572C375.724 206.572 365.907 209.514 357.875 207.702C356.773 207.45 356.287 206.161 356.978 205.264L375.715 180.867L375.734 180.886V180.867H434.055C435.381 180.867 436.082 182.436 435.195 183.426C429.572 189.656 424.771 200.043 424.771 200.043C407.622 237.573 378.545 245.624 375.92 246.278C375.799 246.306 375.677 246.325 375.547 246.325H366.72C366.188 246.325 365.702 246.054 365.422 245.605L350.776 222.142C349.935 220.797 351.439 219.228 352.822 219.994C363.899 226.065 375.734 221.246 375.734 221.246C390.277 215.632 398.515 202.266 402.372 194.056H402.354Z" fill="url(#paint1_linear_1999_3454)"/>
<path d="M269.475 217.295C281.963 203.882 292.948 198.567 298.963 196.503C301.503 195.634 304.222 197.213 304.745 199.847V199.921C305.184 202.088 303.932 204.209 301.858 204.965C289.146 209.57 283.15 221.115 280.347 230.138C279.18 233.892 283.131 237.162 286.634 235.368C291.846 232.697 296.142 233.024 299.972 232.977C302.475 232.94 304.52 234.957 304.492 237.451V238.301C304.464 240.608 302.662 242.514 300.364 242.682L252.868 245.998C250.309 246.175 248.123 244.148 248.123 241.58V185.304C248.123 182.856 250.103 180.867 252.56 180.867H270.979C274.818 180.867 276.863 185.425 274.276 188.265C266.533 196.746 263.217 206.086 261.872 213.493C261.078 217.874 266.458 220.564 269.494 217.304L269.475 217.295Z" fill="url(#paint2_linear_1999_3454)"/>
<path d="M283.628 233.136C282.918 234.649 284.805 236.05 286.047 234.92C295.911 225.953 304.476 222.189 310.258 220.62C310.258 220.62 320.074 217.677 328.107 219.49C329.209 219.742 329.695 221.031 329.004 221.927L310.267 246.325L310.248 246.306V246.325H251.936C250.61 246.325 249.909 244.755 250.797 243.765C256.419 237.535 261.22 227.149 261.22 227.149C278.369 189.619 307.446 181.567 310.071 180.914C310.192 180.886 310.314 180.867 310.444 180.867H319.271C319.803 180.867 320.289 181.138 320.569 181.586L335.215 205.049C336.056 206.394 334.552 207.963 333.17 207.198C322.092 201.126 310.258 205.946 310.258 205.946C295.715 211.56 287.476 224.926 283.619 233.136H283.628Z" fill="url(#paint3_linear_1999_3454)"/>
<path d="M339.284 140.087C352.697 152.575 358.012 163.559 360.076 169.574C360.945 172.115 359.366 174.833 356.732 175.356H356.657C354.49 175.795 352.37 174.543 351.614 172.47C347.009 159.757 335.464 153.761 326.441 150.959C322.686 149.791 319.417 153.742 321.211 157.245C323.882 162.457 323.555 166.753 323.602 170.583C323.639 173.086 321.621 175.132 319.128 175.104H318.278C315.971 175.076 314.065 173.273 313.897 170.975L310.581 123.479C310.404 120.92 312.431 118.734 314.999 118.734H371.275C373.722 118.734 375.712 120.714 375.712 123.171V141.59C375.712 145.429 371.154 147.475 368.314 144.887C359.833 137.144 350.493 133.828 343.086 132.483C338.705 131.689 336.015 137.07 339.275 140.105L339.284 140.087Z" fill="url(#paint4_linear_1999_3454)"/>
<path d="M357.77 206.065C356.78 206.541 355.612 205.86 355.556 204.757C355.36 200.433 354.491 190.579 350.624 180.855C344.899 166.434 331.682 158.186 323.509 154.291C321.996 153.572 320.585 155.468 321.716 156.71C330.636 166.546 334.391 175.083 335.95 180.855C335.95 180.855 339.528 193.119 339.901 210.689C339.92 211.688 338.995 212.454 338.015 212.22C331.448 210.661 310.236 203.842 310.236 180.846V122.543C310.236 121.217 311.805 120.516 312.796 121.404C319.026 127.026 329.412 131.827 329.412 131.827C367.194 149.089 375.096 178.455 375.657 180.725C375.685 180.827 375.694 180.921 375.703 181.033C375.769 182.742 375.806 197.388 357.751 206.074L357.77 206.065Z" fill="url(#paint5_linear_1999_3454)"/>
<path d="M346.699 287.103C333.286 274.614 327.972 263.63 325.907 257.615C325.039 255.074 326.617 252.356 329.251 251.833H329.326C331.493 251.394 333.613 252.646 334.37 254.719C338.975 267.432 350.519 273.428 359.542 276.23C363.297 277.398 366.566 273.447 364.773 269.944C362.101 264.732 362.428 260.436 362.382 256.606C362.344 254.103 364.362 252.057 366.856 252.085H367.706C370.013 252.113 371.918 253.916 372.086 256.214L375.402 303.71C375.58 306.269 373.553 308.455 370.984 308.455H314.708C312.261 308.455 310.271 306.475 310.271 304.018V285.599C310.271 281.76 314.83 279.714 317.669 282.302C326.15 290.045 335.491 293.361 342.898 294.706C347.278 295.5 349.968 290.119 346.708 287.084L346.699 287.103Z" fill="url(#paint6_linear_1999_3454)"/>
<path d="M328.218 221.126C329.209 220.649 330.376 221.331 330.432 222.433C330.628 226.758 331.497 236.612 335.364 246.335C341.09 260.757 354.306 269.005 362.479 272.9C363.992 273.619 365.403 271.723 364.272 270.48C355.352 260.645 351.598 252.108 350.038 246.335C350.038 246.335 346.46 234.071 346.087 216.502C346.068 215.503 346.993 214.737 347.973 214.97C354.54 216.53 375.752 223.349 375.752 246.345V304.666C375.752 305.993 374.183 306.693 373.193 305.806C366.963 300.183 356.576 295.382 356.576 295.382C318.794 278.121 310.892 248.755 310.332 246.485C310.304 246.382 310.294 246.289 310.285 246.177C310.22 244.467 310.182 229.822 328.237 221.135L328.218 221.126Z" fill="url(#paint7_linear_1999_3454)"/>
<path d="M18.4453 346.414V378.779H27.0891V365.407H33.3176V378.779H41.9614V346.414C41.9614 340.956 39.4022 338.253 34.3146 338.253H26.0921C21.0045 338.284 18.4453 340.987 18.4453 346.414ZM27.0891 358.727V345.355C27.0891 344.728 27.6236 344.122 28.2608 344.122H32.1459C32.7729 344.122 33.3176 344.728 33.3176 345.355V358.727H27.0891ZM63.0211 378.779H71.6649V362.427H75.7864C76.5676 362.427 76.9581 362.848 76.9581 363.66V378.779H85.602V363.002C85.602 360.381 84.5844 358.696 82.5288 357.946C84.8517 357.041 86.0234 354.934 86.0234 351.645V347.01C86.0234 341.593 83.4641 338.88 78.3765 338.88H63.0211V378.779ZM76.2387 356.404H71.6649V344.749H76.2387C76.8759 344.749 77.4104 345.324 77.4104 345.961V355.17C77.4104 355.808 76.8759 356.404 76.2387 356.404ZM106.24 346.414V371.256C106.24 376.672 108.799 379.386 113.887 379.386H122.11C127.197 379.386 129.756 376.672 129.756 371.256V346.414C129.756 340.987 127.197 338.284 122.11 338.253H113.887C108.799 338.284 106.24 340.987 106.24 346.414ZM114.884 372.242V345.355C114.884 344.728 115.429 344.122 116.056 344.122H119.941C120.578 344.122 121.123 344.728 121.123 345.355V372.242C121.123 372.88 120.578 373.476 119.941 373.476H116.056C115.429 373.476 114.884 372.88 114.884 372.242ZM150.765 346.414V371.256C150.765 376.672 153.324 379.386 158.412 379.386H166.182C171.269 379.386 173.829 376.672 173.829 371.256V356.589H162.41V362.941H165.637V372.242C165.637 372.88 165.092 373.476 164.465 373.476H160.58C159.943 373.476 159.398 372.88 159.398 372.242V345.355C159.398 344.728 159.943 344.122 160.58 344.122H164.465C165.092 344.122 165.637 344.728 165.637 345.355V350.175H173.829V346.414C173.829 340.956 171.269 338.253 166.182 338.253H158.412C153.324 338.284 150.765 340.987 150.765 346.414ZM190.582 338.88L199.164 364.236V378.779H207.808V364.236L216.359 338.88H208.229L203.47 355.53L198.743 338.88H190.582ZM234.705 346.414V378.779H243.349V365.407H249.578V378.779H258.222V346.414C258.222 340.956 255.662 338.253 250.575 338.253H242.352C237.265 338.284 234.705 340.987 234.705 346.414ZM243.349 358.727V345.355C243.349 344.728 243.894 344.122 244.521 344.122H248.406C249.043 344.122 249.578 344.728 249.578 345.355V358.727H243.349ZM306.395 371.256C306.395 376.672 308.954 379.386 314.042 379.386H321.329C326.427 379.386 328.986 376.672 328.986 371.256V362.673C328.986 357.339 326.427 354.626 321.329 354.543H315.789C315.1 354.543 314.617 353.937 314.617 353.3V346.229C314.617 345.54 315.162 344.995 315.789 344.995H319.17C319.859 344.995 320.342 345.591 320.342 346.229V349.363H328.564V346.414C328.564 340.956 326.005 338.253 320.907 338.253H314.042C308.954 338.284 306.395 340.987 306.395 346.414V354.358C306.395 359.775 308.954 362.488 314.042 362.488H319.612C320.25 362.488 320.794 363.095 320.794 363.722V371.554C320.794 372.242 320.25 372.787 319.612 372.787H315.789C315.1 372.787 314.617 372.181 314.617 371.554V367.124H306.395V371.256ZM349.285 346.414V378.779H357.929V365.407H364.168V378.779H372.811V346.414C372.811 340.956 370.252 338.253 365.154 338.253H356.942C351.844 338.284 349.285 340.987 349.285 346.414ZM357.929 358.727V345.355C357.929 344.728 358.474 344.122 359.111 344.122H362.986C363.623 344.122 364.168 344.728 364.168 345.355V358.727H357.929ZM393.809 346.414V378.779H402.453V345.653C402.453 345.026 402.988 344.42 403.625 344.42H406.965C407.603 344.42 408.106 345.026 408.106 345.653V378.779H416.75V345.653C416.75 345.026 417.295 344.42 417.922 344.42H421.272C421.899 344.42 422.444 345.026 422.444 345.653V378.779H431.057V346.414C431.057 340.956 428.498 338.253 423.41 338.253H418.857C415.763 338.284 413.625 339.27 412.443 341.233C411.179 339.24 409.041 338.253 406.03 338.253H401.456C396.369 338.284 393.809 340.987 393.809 346.414ZM451.634 378.779H460.277V362.427H464.399C465.18 362.427 465.571 362.848 465.571 363.66V378.779H474.214V363.002C474.214 360.381 473.197 358.696 471.141 357.946C473.464 357.041 474.636 354.934 474.636 351.645V347.01C474.636 341.593 472.077 338.88 466.989 338.88H451.634V378.779ZM464.851 356.404H460.277V344.749H464.851C465.488 344.749 466.023 345.324 466.023 345.961V355.17C466.023 355.808 465.488 356.404 464.851 356.404ZM494.853 378.779H503.497V338.88H494.853V378.779ZM524.556 378.779H540.426C545.513 378.779 548.072 376.066 548.072 370.649V347.01C548.072 341.593 545.513 338.88 540.426 338.88H524.556V378.779ZM538.257 372.849H533.2V344.749H538.257C538.894 344.749 539.439 345.324 539.439 345.961V371.615C539.439 372.242 538.894 372.849 538.257 372.849ZM569.132 378.779H585.001C590.099 378.779 592.658 376.066 592.658 370.649V347.01C592.658 341.593 590.099 338.88 585.001 338.88H569.132V378.779ZM582.833 372.849H577.776V344.749H582.833C583.47 344.749 584.015 345.324 584.015 345.961V371.615C584.015 372.242 583.47 372.849 582.833 372.849ZM613.718 378.779H622.352V363.126H629.187V378.779H637.83V338.88H629.187V355.592H622.352V338.88H613.718V378.779ZM658.654 378.779H667.298V338.88H658.654V378.779Z" fill="white"/>
<path d="M26.9173 427.018H23.4434V411.601H28.7365C30.4221 411.601 31.8645 411.964 33.0636 412.691C34.2627 413.417 34.8623 414.709 34.8623 416.566C34.8623 418.381 34.2627 419.707 33.0636 420.543C31.8645 421.379 30.453 421.797 28.829 421.797H26.9173V427.018ZM26.9173 414.376V419.032H28.6235C30.5146 419.032 31.4602 418.21 31.4602 416.566C31.4602 415.764 31.2067 415.199 30.6997 414.87C30.1995 414.541 29.4766 414.376 28.531 414.376H26.9173ZM53.4244 414.376V418.693H55.2128C57.0902 418.693 58.0289 417.929 58.0289 416.401C58.0289 415.647 57.7891 415.12 57.3095 414.818C56.8298 414.524 56.1309 414.376 55.2128 414.376H53.4244ZM53.4244 421.458V427.018H49.9401V411.601H55.5005C57.1382 411.601 58.536 411.944 59.694 412.629C60.852 413.321 61.431 414.579 61.431 416.401C61.431 417.539 61.1809 418.47 60.6807 419.197C60.1736 419.923 59.509 420.475 58.6867 420.852L62.1915 427.018H58.2859L55.3361 421.458H53.4244ZM83.1073 427.306C81.0312 427.306 79.3456 426.59 78.0505 425.158C76.7624 423.733 76.1183 421.759 76.1183 419.238C76.1183 416.716 76.7624 414.767 78.0505 413.39C79.3456 412.012 81.0312 411.324 83.1073 411.324C85.1904 411.324 86.8794 412.016 88.1744 413.4C89.4626 414.791 90.1067 416.737 90.1067 419.238C90.1067 421.759 89.4626 423.733 88.1744 425.158C86.8794 426.59 85.1904 427.306 83.1073 427.306ZM83.1073 424.295C84.1626 424.295 84.9985 423.839 85.6152 422.928C86.2319 422.016 86.5402 420.786 86.5402 419.238C86.5402 417.71 86.2319 416.511 85.6152 415.641C84.9985 414.764 84.1626 414.325 83.1073 414.325C82.0521 414.325 81.2196 414.764 80.6098 415.641C79.9931 416.511 79.6848 417.71 79.6848 419.238C79.6848 420.786 79.9931 422.016 80.6098 422.928C81.2196 423.839 82.0521 424.295 83.1073 424.295ZM110.128 427.306C109.121 427.306 108.114 427.114 107.107 426.731C106.099 426.354 105.209 425.802 104.434 425.076L106.418 422.691C106.973 423.164 107.59 423.551 108.268 423.853C108.939 424.147 109.59 424.295 110.221 424.295C111.66 424.295 112.379 423.801 112.379 422.815C112.379 422.321 112.177 421.962 111.773 421.735C111.369 421.509 110.831 421.252 110.159 420.965L108.145 420.112C107.357 419.796 106.644 419.296 106.007 418.611C105.37 417.926 105.051 417.025 105.051 415.908C105.051 414.633 105.561 413.551 106.582 412.66C107.61 411.769 108.926 411.324 110.529 411.324C111.413 411.324 112.297 411.495 113.181 411.838C114.065 412.187 114.836 412.694 115.493 413.359L113.726 415.558C113.219 415.161 112.715 414.856 112.215 414.644C111.708 414.431 111.146 414.325 110.529 414.325C109.933 414.325 109.457 414.448 109.1 414.695C108.744 414.935 108.566 415.277 108.566 415.723C108.566 416.196 108.792 416.548 109.244 416.781C109.697 417.021 110.252 417.275 110.909 417.542L112.893 418.344C113.825 418.721 114.568 419.241 115.123 419.906C115.672 420.564 115.946 421.437 115.946 422.527C115.946 423.801 115.439 424.915 114.425 425.867C113.404 426.826 111.971 427.306 110.128 427.306ZM134.456 427.018H130.982V411.601H136.276C137.961 411.601 139.404 411.964 140.603 412.691C141.802 413.417 142.401 414.709 142.401 416.566C142.401 418.381 141.802 419.707 140.603 420.543C139.404 421.379 137.992 421.797 136.368 421.797H134.456V427.018ZM134.456 414.376V419.032H136.163C138.054 419.032 138.999 418.21 138.999 416.566C138.999 415.764 138.746 415.199 138.239 414.87C137.732 414.541 137.005 414.376 136.06 414.376H134.456ZM167.356 427.018H157.479V411.601H167.12V414.541H160.953V417.635H166.205V420.543H160.953V424.089H167.356V427.018ZM186.319 414.376V418.693H188.118C189.995 418.693 190.934 417.929 190.934 416.401C190.934 415.647 190.691 415.12 190.204 414.818C189.725 414.524 189.029 414.376 188.118 414.376H186.319ZM186.319 421.458V427.018H182.845V411.601H188.396C190.04 411.601 191.441 411.944 192.599 412.629C193.757 413.321 194.336 414.579 194.336 416.401C194.336 417.539 194.083 418.47 193.576 419.197C193.075 419.923 192.414 420.475 191.592 420.852L195.087 427.018H191.191L188.231 421.458H186.319ZM213.217 427.018H209.743V411.601H213.217V427.018ZM235.777 427.018H232.272V414.541H228.048V411.601H240.002V414.541H235.777V427.018ZM260.527 427.018H257.053V421.53L252.397 411.601H256.128L257.495 415.147C257.721 415.73 257.933 416.295 258.132 416.843C258.338 417.384 258.543 417.957 258.749 418.56H258.841C259.067 417.957 259.287 417.384 259.499 416.843C259.711 416.295 259.927 415.73 260.146 415.147L261.544 411.601H265.183L260.527 421.53V427.018ZM302.862 427.018H299.367V414.541H295.133V411.601H307.097V414.541H302.862V427.018ZM325.391 427.018H321.917V411.601H325.391V417.542H330.705V411.601H334.21V427.018H330.705V420.584H325.391V427.018ZM353.738 414.376V418.693H355.527C357.404 418.693 358.343 417.929 358.343 416.401C358.343 415.647 358.103 415.12 357.623 414.818C357.144 414.524 356.445 414.376 355.527 414.376H353.738ZM353.738 421.458V427.018H350.264V411.601H355.814C357.452 411.601 358.85 411.944 360.008 412.629C361.166 413.321 361.745 414.579 361.745 416.401C361.745 417.539 361.495 418.47 360.995 419.197C360.487 419.923 359.826 420.475 359.011 420.852L362.505 427.018H358.6L355.65 421.458H353.738ZM383.421 427.306C381.345 427.306 379.659 426.59 378.364 425.158C377.076 423.733 376.432 421.759 376.432 419.238C376.432 416.716 377.076 414.767 378.364 413.39C379.659 412.012 381.345 411.324 383.421 411.324C385.504 411.324 387.193 412.016 388.488 413.4C389.776 414.791 390.421 416.737 390.421 419.238C390.421 421.759 389.776 423.733 388.488 425.158C387.193 426.59 385.504 427.306 383.421 427.306ZM383.421 424.295C384.483 424.295 385.319 423.839 385.929 422.928C386.546 422.016 386.854 420.786 386.854 419.238C386.854 417.71 386.546 416.511 385.929 415.641C385.319 414.764 384.483 414.325 383.421 414.325C382.366 414.325 381.533 414.764 380.924 415.641C380.307 416.511 379.999 417.71 379.999 419.238C379.999 420.786 380.307 422.016 380.924 422.928C381.533 423.839 382.366 424.295 383.421 424.295ZM411.819 427.306C409.819 427.306 408.291 426.713 407.235 425.528C406.173 424.349 405.642 422.465 405.642 419.875V411.601H409.147V420.235C409.147 421.749 409.377 422.804 409.836 423.4C410.288 423.997 410.949 424.295 411.819 424.295C412.683 424.295 413.351 423.997 413.824 423.4C414.296 422.804 414.533 421.749 414.533 420.235V411.601H417.894V419.875C417.894 422.465 417.376 424.349 416.342 425.528C415.314 426.713 413.807 427.306 411.819 427.306ZM440.68 427.306C438.57 427.306 436.785 426.635 435.325 425.292C433.866 423.955 433.136 421.992 433.136 419.402C433.136 417.703 433.475 416.25 434.154 415.044C434.832 413.838 435.743 412.917 436.888 412.28C438.032 411.642 439.289 411.324 440.66 411.324C441.763 411.324 442.719 411.529 443.527 411.94C444.343 412.345 445 412.807 445.501 413.328L443.681 415.558C443.291 415.209 442.873 414.914 442.427 414.674C441.989 414.441 441.437 414.325 440.773 414.325C439.574 414.325 438.597 414.767 437.843 415.651C437.09 416.528 436.713 417.741 436.713 419.289C436.713 420.879 437.069 422.112 437.782 422.989C438.501 423.86 439.587 424.295 441.04 424.295C441.746 424.295 442.297 424.141 442.695 423.832V421.18H440.135V418.344H445.768V425.436C445.226 425.956 444.51 426.398 443.62 426.761C442.729 427.125 441.749 427.306 440.68 427.306ZM464.844 427.018H461.37V411.601H464.844V417.542H470.158V411.601H473.662V427.018H470.158V420.584H464.844V427.018ZM527.458 427.018H523.984V411.601H527.458V417.542H532.782V411.601H536.276V427.018H532.782V420.584H527.458V427.018ZM562.208 427.018H552.33V411.601H561.971V414.541H555.804V417.635H561.056V420.543H555.804V424.089H562.208V427.018ZM581.314 419.217L580.934 420.636H584.223L583.863 419.217C583.644 418.443 583.432 417.624 583.226 416.761C583.021 415.891 582.815 415.055 582.609 414.253H582.517C582.332 415.075 582.14 415.915 581.941 416.771C581.743 417.628 581.534 418.443 581.314 419.217ZM589.568 427.018H585.878L584.932 423.359H580.225L579.279 427.018H575.733L580.554 411.601H584.737L589.568 427.018ZM613.228 427.018H603.649V411.601H607.123V424.089H613.228V427.018ZM631.975 427.018H628.47V414.541H624.246V411.601H636.199V414.541H631.975V427.018ZM654.504 427.018H651.03V411.601H654.504V417.542H659.818V411.601H663.323V427.018H659.818V420.584H654.504V427.018Z" fill="white"/>
</g>
<defs>
<linearGradient id="paint0_linear_1999_3454" x1="409.498" y1="181.557" x2="409.498" y2="246.492" gradientUnits="userSpaceOnUse">
<stop stop-color="#1C1C10"/>
<stop offset="1" stop-color="#75AB42"/>
</linearGradient>
<linearGradient id="paint1_linear_1999_3454" x1="367.318" y1="222.329" x2="415.664" y2="186.359" gradientUnits="userSpaceOnUse">
<stop stop-color="#EAE728"/>
<stop offset="1" stop-color="#75AB42"/>
</linearGradient>
<linearGradient id="paint2_linear_1999_3454" x1="276.471" y1="247.1" x2="276.471" y2="180.082" gradientUnits="userSpaceOnUse">
<stop stop-color="#1C1C10"/>
<stop offset="1" stop-color="#75AB42"/>
</linearGradient>
<linearGradient id="paint3_linear_1999_3454" x1="314.788" y1="210.392" x2="269.832" y2="234.602" gradientUnits="userSpaceOnUse">
<stop stop-color="#EAE728"/>
<stop offset="1" stop-color="#75AB42"/>
</linearGradient>
<linearGradient id="paint4_linear_1999_3454" x1="309.918" y1="147.082" x2="378.028" y2="147.082" gradientUnits="userSpaceOnUse">
<stop stop-color="#1C1C10"/>
<stop offset="1" stop-color="#75AB42"/>
</linearGradient>
<linearGradient id="paint5_linear_1999_3454" x1="314.561" y1="115.865" x2="353.977" y2="209.783" gradientUnits="userSpaceOnUse">
<stop stop-color="#EAE728"/>
<stop offset="1" stop-color="#75AB42"/>
</linearGradient>
<linearGradient id="paint6_linear_1999_3454" x1="375.71" y1="280.107" x2="307.675" y2="280.107" gradientUnits="userSpaceOnUse">
<stop stop-color="#1C1C10"/>
<stop offset="1" stop-color="#75AB42"/>
</linearGradient>
<linearGradient id="paint7_linear_1999_3454" x1="364.627" y1="314.063" x2="334.122" y2="215.045" gradientUnits="userSpaceOnUse">
<stop stop-color="#EAE728"/>
<stop offset="1" stop-color="#75AB42"/>
</linearGradient>
</defs>
</svg>
