<svg width="686" height="548" viewBox="0 0 686 548" fill="none" xmlns="http://www.w3.org/2000/svg">
<g clip-path="url(#clip0_243_265)">
<path d="M416.496 209.896C404.007 223.309 393.023 228.623 387.008 230.688C384.467 231.556 381.749 229.978 381.226 227.344V227.269C380.787 225.102 382.039 222.982 384.112 222.225C396.825 217.62 402.821 206.076 405.623 197.053C406.791 193.298 402.84 190.029 399.337 191.822C394.125 194.493 389.829 194.167 385.999 194.213C383.496 194.251 381.45 192.233 381.478 189.739V188.889C381.506 186.582 383.309 184.677 385.607 184.509L433.103 181.193C435.662 181.015 437.848 183.042 437.848 185.611V241.887C437.848 244.334 435.868 246.323 433.411 246.323H414.992C411.153 246.323 409.107 241.765 411.695 238.926C419.438 230.445 422.754 221.104 424.099 213.697C424.893 209.317 419.513 206.627 416.477 209.886L416.496 209.896Z" fill="url(#paint0_linear_243_265)"/>
<path d="M402.355 194.056C403.065 192.542 401.178 191.141 399.936 192.272C390.072 201.238 381.507 205.003 375.725 206.572C375.725 206.572 365.908 209.514 357.876 207.702C356.774 207.45 356.288 206.161 356.979 205.264L375.716 180.867L375.735 180.886V180.867H434.056C435.382 180.867 436.083 182.436 435.196 183.426C429.573 189.656 424.772 200.043 424.772 200.043C407.623 237.573 378.546 245.624 375.921 246.278C375.8 246.306 375.678 246.325 375.548 246.325H366.721C366.189 246.325 365.703 246.054 365.423 245.605L350.777 222.142C349.936 220.797 351.44 219.228 352.823 219.994C363.9 226.065 375.735 221.246 375.735 221.246C390.278 215.632 398.516 202.266 402.373 194.056H402.355Z" fill="url(#paint1_linear_243_265)"/>
<path d="M269.476 217.295C281.964 203.882 292.949 198.567 298.964 196.503C301.504 195.634 304.223 197.213 304.746 199.847V199.921C305.185 202.088 303.933 204.209 301.859 204.965C289.147 209.57 283.151 221.115 280.348 230.138C279.181 233.892 283.132 237.162 286.635 235.368C291.847 232.697 296.143 233.024 299.973 232.977C302.476 232.94 304.521 234.957 304.493 237.451V238.301C304.465 240.608 302.663 242.514 300.365 242.682L252.869 245.998C250.31 246.175 248.124 244.148 248.124 241.58V185.304C248.124 182.856 250.104 180.867 252.561 180.867H270.98C274.819 180.867 276.864 185.425 274.277 188.265C266.534 196.746 263.218 206.086 261.873 213.493C261.079 217.874 266.459 220.564 269.495 217.304L269.476 217.295Z" fill="url(#paint2_linear_243_265)"/>
<path d="M283.628 233.136C282.918 234.649 284.805 236.05 286.047 234.92C295.911 225.953 304.476 222.189 310.258 220.62C310.258 220.62 320.074 217.677 328.107 219.49C329.209 219.742 329.695 221.031 329.004 221.927L310.267 246.325L310.248 246.306V246.325H251.936C250.61 246.325 249.909 244.755 250.797 243.765C256.419 237.535 261.22 227.149 261.22 227.149C278.369 189.619 307.446 181.567 310.071 180.914C310.192 180.886 310.314 180.867 310.444 180.867H319.271C319.803 180.867 320.289 181.138 320.569 181.586L335.215 205.049C336.056 206.394 334.552 207.963 333.17 207.198C322.092 201.126 310.258 205.946 310.258 205.946C295.715 211.56 287.476 224.926 283.619 233.136H283.628Z" fill="url(#paint3_linear_243_265)"/>
<path d="M339.285 140.087C352.698 152.575 358.013 163.559 360.077 169.574C360.946 172.115 359.367 174.833 356.733 175.356H356.658C354.491 175.795 352.371 174.543 351.615 172.47C347.01 159.757 335.465 153.761 326.442 150.959C322.687 149.791 319.418 153.742 321.212 157.245C323.883 162.457 323.556 166.753 323.603 170.583C323.64 173.086 321.622 175.132 319.129 175.104H318.279C315.972 175.076 314.066 173.273 313.898 170.975L310.582 123.479C310.405 120.92 312.432 118.734 315 118.734H371.276C373.723 118.734 375.713 120.714 375.713 123.171V141.59C375.713 145.429 371.155 147.475 368.315 144.887C359.834 137.144 350.494 133.828 343.087 132.483C338.706 131.689 336.016 137.07 339.276 140.105L339.285 140.087Z" fill="url(#paint4_linear_243_265)"/>
<path d="M357.771 206.065C356.781 206.541 355.613 205.86 355.557 204.757C355.361 200.433 354.492 190.579 350.625 180.855C344.9 166.434 331.683 158.186 323.51 154.291C321.997 153.572 320.586 155.468 321.717 156.71C330.637 166.546 334.392 175.083 335.951 180.855C335.951 180.855 339.529 193.119 339.902 210.689C339.921 211.688 338.996 212.454 338.016 212.22C331.449 210.661 310.237 203.842 310.237 180.846V122.543C310.237 121.217 311.806 120.516 312.797 121.404C319.027 127.026 329.413 131.827 329.413 131.827C367.195 149.089 375.097 178.455 375.658 180.725C375.686 180.827 375.695 180.921 375.704 181.033C375.77 182.742 375.807 197.388 357.752 206.074L357.771 206.065Z" fill="url(#paint5_linear_243_265)"/>
<path d="M346.701 287.103C333.288 274.614 327.974 263.63 325.909 257.615C325.041 255.074 326.619 252.356 329.253 251.833H329.328C331.495 251.394 333.615 252.646 334.372 254.719C338.977 267.432 350.521 273.428 359.544 276.23C363.299 277.398 366.568 273.447 364.775 269.944C362.103 264.732 362.43 260.436 362.384 256.606C362.346 254.103 364.364 252.057 366.858 252.085H367.708C370.015 252.113 371.92 253.916 372.088 256.214L375.404 303.71C375.582 306.269 373.555 308.455 370.986 308.455H314.71C312.263 308.455 310.273 306.475 310.273 304.018V285.599C310.273 281.76 314.832 279.714 317.671 282.302C326.152 290.045 335.493 293.361 342.9 294.706C347.28 295.5 349.97 290.119 346.71 287.084L346.701 287.103Z" fill="url(#paint6_linear_243_265)"/>
<path d="M328.219 221.126C329.21 220.649 330.377 221.331 330.433 222.433C330.629 226.758 331.498 236.612 335.365 246.335C341.091 260.757 354.307 269.005 362.48 272.9C363.993 273.619 365.404 271.723 364.273 270.48C355.353 260.645 351.599 252.108 350.039 246.335C350.039 246.335 346.461 234.071 346.088 216.502C346.069 215.503 346.994 214.737 347.974 214.97C354.541 216.53 375.753 223.349 375.753 246.345V304.666C375.753 305.993 374.184 306.693 373.194 305.806C366.964 300.183 356.577 295.382 356.577 295.382C318.795 278.121 310.893 248.755 310.333 246.485C310.305 246.382 310.295 246.289 310.286 246.177C310.221 244.467 310.183 229.822 328.238 221.135L328.219 221.126Z" fill="url(#paint7_linear_243_265)"/>
<path d="M18.4463 346.414V378.779H27.0901V365.407H33.3186V378.779H41.9624V346.414C41.9624 340.956 39.4032 338.253 34.3156 338.253H26.0931C21.0055 338.284 18.4463 340.987 18.4463 346.414ZM27.0901 358.727V345.355C27.0901 344.728 27.6246 344.122 28.2618 344.122H32.1469C32.7739 344.122 33.3186 344.728 33.3186 345.355V358.727H27.0901ZM63.0221 378.779H71.6659V362.427H75.7874C76.5686 362.427 76.9591 362.848 76.9591 363.66V378.779H85.603V363.002C85.603 360.381 84.5854 358.696 82.5298 357.946C84.8527 357.041 86.0244 354.934 86.0244 351.645V347.01C86.0244 341.593 83.4651 338.88 78.3775 338.88H63.0221V378.779ZM76.2397 356.404H71.6659V344.749H76.2397C76.8769 344.749 77.4114 345.324 77.4114 345.961V355.17C77.4114 355.808 76.8769 356.404 76.2397 356.404ZM106.241 346.414V371.256C106.241 376.672 108.8 379.386 113.888 379.386H122.111C127.198 379.386 129.757 376.672 129.757 371.256V346.414C129.757 340.987 127.198 338.284 122.111 338.253H113.888C108.8 338.284 106.241 340.987 106.241 346.414ZM114.885 372.242V345.355C114.885 344.728 115.43 344.122 116.057 344.122H119.942C120.579 344.122 121.124 344.728 121.124 345.355V372.242C121.124 372.88 120.579 373.476 119.942 373.476H116.057C115.43 373.476 114.885 372.88 114.885 372.242ZM150.766 346.414V371.256C150.766 376.672 153.325 379.386 158.413 379.386H166.183C171.27 379.386 173.83 376.672 173.83 371.256V356.589H162.411V362.941H165.638V372.242C165.638 372.88 165.093 373.476 164.466 373.476H160.581C159.944 373.476 159.399 372.88 159.399 372.242V345.355C159.399 344.728 159.944 344.122 160.581 344.122H164.466C165.093 344.122 165.638 344.728 165.638 345.355V350.175H173.83V346.414C173.83 340.956 171.27 338.253 166.183 338.253H158.413C153.325 338.284 150.766 340.987 150.766 346.414ZM190.583 338.88L199.165 364.236V378.779H207.809V364.236L216.36 338.88H208.23L203.471 355.53L198.744 338.88H190.583ZM234.706 346.414V378.779H243.35V365.407H249.579V378.779H258.223V346.414C258.223 340.956 255.663 338.253 250.576 338.253H242.353C237.266 338.284 234.706 340.987 234.706 346.414ZM243.35 358.727V345.355C243.35 344.728 243.895 344.122 244.522 344.122H248.407C249.044 344.122 249.579 344.728 249.579 345.355V358.727H243.35ZM306.396 371.256C306.396 376.672 308.955 379.386 314.043 379.386H321.33C326.428 379.386 328.987 376.672 328.987 371.256V362.673C328.987 357.339 326.428 354.626 321.33 354.543H315.79C315.101 354.543 314.618 353.937 314.618 353.3V346.229C314.618 345.54 315.163 344.995 315.79 344.995H319.171C319.86 344.995 320.343 345.591 320.343 346.229V349.363H328.565V346.414C328.565 340.956 326.006 338.253 320.908 338.253H314.043C308.955 338.284 306.396 340.987 306.396 346.414V354.358C306.396 359.775 308.955 362.488 314.043 362.488H319.613C320.251 362.488 320.795 363.095 320.795 363.722V371.554C320.795 372.242 320.251 372.787 319.613 372.787H315.79C315.101 372.787 314.618 372.181 314.618 371.554V367.124H306.396V371.256ZM349.286 346.414V378.779H357.93V365.407H364.169V378.779H372.812V346.414C372.812 340.956 370.253 338.253 365.155 338.253H356.943C351.845 338.284 349.286 340.987 349.286 346.414ZM357.93 358.727V345.355C357.93 344.728 358.475 344.122 359.112 344.122H362.987C363.624 344.122 364.169 344.728 364.169 345.355V358.727H357.93ZM393.81 346.414V378.779H402.454V345.653C402.454 345.026 402.989 344.42 403.626 344.42H406.966C407.604 344.42 408.107 345.026 408.107 345.653V378.779H416.751V345.653C416.751 345.026 417.296 344.42 417.923 344.42H421.273C421.9 344.42 422.445 345.026 422.445 345.653V378.779H431.058V346.414C431.058 340.956 428.499 338.253 423.411 338.253H418.858C415.764 338.284 413.626 339.27 412.444 341.233C411.18 339.24 409.042 338.253 406.031 338.253H401.457C396.37 338.284 393.81 340.987 393.81 346.414ZM451.635 378.779H460.278V362.427H464.4C465.181 362.427 465.572 362.848 465.572 363.66V378.779H474.215V363.002C474.215 360.381 473.198 358.696 471.142 357.946C473.465 357.041 474.637 354.934 474.637 351.645V347.01C474.637 341.593 472.078 338.88 466.99 338.88H451.635V378.779ZM464.852 356.404H460.278V344.749H464.852C465.489 344.749 466.024 345.324 466.024 345.961V355.17C466.024 355.808 465.489 356.404 464.852 356.404ZM494.854 378.779H503.498V338.88H494.854V378.779ZM524.557 378.779H540.427C545.514 378.779 548.073 376.066 548.073 370.649V347.01C548.073 341.593 545.514 338.88 540.427 338.88H524.557V378.779ZM538.258 372.849H533.201V344.749H538.258C538.895 344.749 539.44 345.324 539.44 345.961V371.615C539.44 372.242 538.895 372.849 538.258 372.849ZM569.133 378.779H585.002C590.1 378.779 592.659 376.066 592.659 370.649V347.01C592.659 341.593 590.1 338.88 585.002 338.88H569.133V378.779ZM582.834 372.849H577.777V344.749H582.834C583.471 344.749 584.016 345.324 584.016 345.961V371.615C584.016 372.242 583.471 372.849 582.834 372.849ZM613.719 378.779H622.353V363.126H629.188V378.779H637.831V338.88H629.188V355.592H622.353V338.88H613.719V378.779ZM658.655 378.779H667.299V338.88H658.655V378.779Z" fill="#38481F"/>
<path d="M26.9173 427.018H23.4434V411.601H28.7365C30.4221 411.601 31.8645 411.964 33.0636 412.691C34.2627 413.417 34.8623 414.709 34.8623 416.566C34.8623 418.381 34.2627 419.707 33.0636 420.543C31.8645 421.379 30.453 421.797 28.829 421.797H26.9173V427.018ZM26.9173 414.376V419.032H28.6235C30.5146 419.032 31.4602 418.21 31.4602 416.566C31.4602 415.764 31.2067 415.199 30.6997 414.87C30.1995 414.541 29.4766 414.376 28.531 414.376H26.9173ZM53.4244 414.376V418.693H55.2128C57.0902 418.693 58.0289 417.929 58.0289 416.401C58.0289 415.647 57.7891 415.12 57.3095 414.818C56.8298 414.524 56.1309 414.376 55.2128 414.376H53.4244ZM53.4244 421.458V427.018H49.9401V411.601H55.5005C57.1382 411.601 58.536 411.944 59.694 412.629C60.852 413.321 61.431 414.579 61.431 416.401C61.431 417.539 61.1809 418.47 60.6807 419.197C60.1736 419.923 59.509 420.475 58.6867 420.852L62.1915 427.018H58.2859L55.3361 421.458H53.4244ZM83.1073 427.306C81.0312 427.306 79.3456 426.59 78.0505 425.158C76.7624 423.733 76.1183 421.759 76.1183 419.238C76.1183 416.716 76.7624 414.767 78.0505 413.39C79.3456 412.012 81.0312 411.324 83.1073 411.324C85.1904 411.324 86.8794 412.016 88.1744 413.4C89.4626 414.791 90.1067 416.737 90.1067 419.238C90.1067 421.759 89.4626 423.733 88.1744 425.158C86.8794 426.59 85.1904 427.306 83.1073 427.306ZM83.1073 424.295C84.1626 424.295 84.9985 423.839 85.6152 422.928C86.2319 422.016 86.5402 420.786 86.5402 419.238C86.5402 417.71 86.2319 416.511 85.6152 415.641C84.9985 414.764 84.1626 414.325 83.1073 414.325C82.0521 414.325 81.2196 414.764 80.6098 415.641C79.9931 416.511 79.6848 417.71 79.6848 419.238C79.6848 420.786 79.9931 422.016 80.6098 422.928C81.2196 423.839 82.0521 424.295 83.1073 424.295ZM110.128 427.306C109.121 427.306 108.114 427.114 107.107 426.731C106.099 426.354 105.209 425.802 104.434 425.076L106.418 422.691C106.973 423.164 107.59 423.551 108.268 423.853C108.939 424.147 109.59 424.295 110.221 424.295C111.66 424.295 112.379 423.801 112.379 422.815C112.379 422.321 112.177 421.962 111.773 421.735C111.369 421.509 110.831 421.252 110.159 420.965L108.145 420.112C107.357 419.796 106.644 419.296 106.007 418.611C105.37 417.926 105.051 417.025 105.051 415.908C105.051 414.633 105.561 413.551 106.582 412.66C107.61 411.769 108.926 411.324 110.529 411.324C111.413 411.324 112.297 411.495 113.181 411.838C114.065 412.187 114.836 412.694 115.493 413.359L113.726 415.558C113.219 415.161 112.715 414.856 112.215 414.644C111.708 414.431 111.146 414.325 110.529 414.325C109.933 414.325 109.457 414.448 109.1 414.695C108.744 414.935 108.566 415.277 108.566 415.723C108.566 416.196 108.792 416.548 109.244 416.781C109.697 417.021 110.252 417.275 110.909 417.542L112.893 418.344C113.825 418.721 114.568 419.241 115.123 419.906C115.672 420.564 115.946 421.437 115.946 422.527C115.946 423.801 115.439 424.915 114.425 425.867C113.404 426.826 111.971 427.306 110.128 427.306ZM134.456 427.018H130.982V411.601H136.276C137.961 411.601 139.404 411.964 140.603 412.691C141.802 413.417 142.401 414.709 142.401 416.566C142.401 418.381 141.802 419.707 140.603 420.543C139.404 421.379 137.992 421.797 136.368 421.797H134.456V427.018ZM134.456 414.376V419.032H136.163C138.054 419.032 138.999 418.21 138.999 416.566C138.999 415.764 138.746 415.199 138.239 414.87C137.732 414.541 137.005 414.376 136.06 414.376H134.456ZM167.356 427.018H157.479V411.601H167.12V414.541H160.953V417.635H166.205V420.543H160.953V424.089H167.356V427.018ZM186.319 414.376V418.693H188.118C189.995 418.693 190.934 417.929 190.934 416.401C190.934 415.647 190.691 415.12 190.204 414.818C189.725 414.524 189.029 414.376 188.118 414.376H186.319ZM186.319 421.458V427.018H182.845V411.601H188.396C190.04 411.601 191.441 411.944 192.599 412.629C193.757 413.321 194.336 414.579 194.336 416.401C194.336 417.539 194.083 418.47 193.576 419.197C193.075 419.923 192.414 420.475 191.592 420.852L195.087 427.018H191.191L188.231 421.458H186.319ZM213.217 427.018H209.743V411.601H213.217V427.018ZM235.777 427.018H232.272V414.541H228.048V411.601H240.002V414.541H235.777V427.018ZM260.527 427.018H257.053V421.53L252.397 411.601H256.128L257.495 415.147C257.721 415.73 257.933 416.295 258.132 416.843C258.338 417.384 258.543 417.957 258.749 418.56H258.841C259.067 417.957 259.287 417.384 259.499 416.843C259.711 416.295 259.927 415.73 260.146 415.147L261.544 411.601H265.183L260.527 421.53V427.018ZM302.862 427.018H299.367V414.541H295.133V411.601H307.097V414.541H302.862V427.018ZM325.391 427.018H321.917V411.601H325.391V417.542H330.705V411.601H334.21V427.018H330.705V420.584H325.391V427.018ZM353.738 414.376V418.693H355.527C357.404 418.693 358.343 417.929 358.343 416.401C358.343 415.647 358.103 415.12 357.623 414.818C357.144 414.524 356.445 414.376 355.527 414.376H353.738ZM353.738 421.458V427.018H350.264V411.601H355.814C357.452 411.601 358.85 411.944 360.008 412.629C361.166 413.321 361.745 414.579 361.745 416.401C361.745 417.539 361.495 418.47 360.995 419.197C360.487 419.923 359.826 420.475 359.011 420.852L362.505 427.018H358.6L355.65 421.458H353.738ZM383.421 427.306C381.345 427.306 379.659 426.59 378.364 425.158C377.076 423.733 376.432 421.759 376.432 419.238C376.432 416.716 377.076 414.767 378.364 413.39C379.659 412.012 381.345 411.324 383.421 411.324C385.504 411.324 387.193 412.016 388.488 413.4C389.776 414.791 390.421 416.737 390.421 419.238C390.421 421.759 389.776 423.733 388.488 425.158C387.193 426.59 385.504 427.306 383.421 427.306ZM383.421 424.295C384.483 424.295 385.319 423.839 385.929 422.928C386.546 422.016 386.854 420.786 386.854 419.238C386.854 417.71 386.546 416.511 385.929 415.641C385.319 414.764 384.483 414.325 383.421 414.325C382.366 414.325 381.533 414.764 380.924 415.641C380.307 416.511 379.999 417.71 379.999 419.238C379.999 420.786 380.307 422.016 380.924 422.928C381.533 423.839 382.366 424.295 383.421 424.295ZM411.819 427.306C409.819 427.306 408.291 426.713 407.235 425.528C406.173 424.349 405.642 422.465 405.642 419.875V411.601H409.147V420.235C409.147 421.749 409.377 422.804 409.836 423.4C410.288 423.997 410.949 424.295 411.819 424.295C412.683 424.295 413.351 423.997 413.824 423.4C414.296 422.804 414.533 421.749 414.533 420.235V411.601H417.894V419.875C417.894 422.465 417.376 424.349 416.342 425.528C415.314 426.713 413.807 427.306 411.819 427.306ZM440.68 427.306C438.57 427.306 436.785 426.635 435.325 425.292C433.866 423.955 433.136 421.992 433.136 419.402C433.136 417.703 433.475 416.25 434.154 415.044C434.832 413.838 435.743 412.917 436.888 412.28C438.032 411.642 439.289 411.324 440.66 411.324C441.763 411.324 442.719 411.529 443.527 411.94C444.343 412.345 445 412.807 445.501 413.328L443.681 415.558C443.291 415.209 442.873 414.914 442.427 414.674C441.989 414.441 441.437 414.325 440.773 414.325C439.574 414.325 438.597 414.767 437.843 415.651C437.09 416.528 436.713 417.741 436.713 419.289C436.713 420.879 437.069 422.112 437.782 422.989C438.501 423.86 439.587 424.295 441.04 424.295C441.746 424.295 442.297 424.141 442.695 423.832V421.18H440.135V418.344H445.768V425.436C445.226 425.956 444.51 426.398 443.62 426.761C442.729 427.125 441.749 427.306 440.68 427.306ZM464.844 427.018H461.37V411.601H464.844V417.542H470.158V411.601H473.662V427.018H470.158V420.584H464.844V427.018ZM527.458 427.018H523.984V411.601H527.458V417.542H532.782V411.601H536.276V427.018H532.782V420.584H527.458V427.018ZM562.208 427.018H552.33V411.601H561.971V414.541H555.804V417.635H561.056V420.543H555.804V424.089H562.208V427.018ZM581.314 419.217L580.934 420.636H584.223L583.863 419.217C583.644 418.443 583.432 417.624 583.226 416.761C583.021 415.891 582.815 415.055 582.609 414.253H582.517C582.332 415.075 582.14 415.915 581.941 416.771C581.743 417.628 581.534 418.443 581.314 419.217ZM589.568 427.018H585.878L584.932 423.359H580.225L579.279 427.018H575.733L580.554 411.601H584.737L589.568 427.018ZM613.228 427.018H603.649V411.601H607.123V424.089H613.228V427.018ZM631.975 427.018H628.47V414.541H624.246V411.601H636.199V414.541H631.975V427.018ZM654.504 427.018H651.03V411.601H654.504V417.542H659.818V411.601H663.323V427.018H659.818V420.584H654.504V427.018Z" fill="#6B8D42"/>
</g>
<defs>
<linearGradient id="paint0_linear_243_265" x1="409.5" y1="181.557" x2="409.5" y2="246.492" gradientUnits="userSpaceOnUse">
<stop stop-color="#1C1C10"/>
<stop offset="1" stop-color="#75AB42"/>
</linearGradient>
<linearGradient id="paint1_linear_243_265" x1="367.319" y1="222.329" x2="415.665" y2="186.359" gradientUnits="userSpaceOnUse">
<stop stop-color="#EAE728"/>
<stop offset="1" stop-color="#75AB42"/>
</linearGradient>
<linearGradient id="paint2_linear_243_265" x1="276.472" y1="247.1" x2="276.472" y2="180.082" gradientUnits="userSpaceOnUse">
<stop stop-color="#1C1C10"/>
<stop offset="1" stop-color="#75AB42"/>
</linearGradient>
<linearGradient id="paint3_linear_243_265" x1="314.788" y1="210.392" x2="269.832" y2="234.602" gradientUnits="userSpaceOnUse">
<stop stop-color="#EAE728"/>
<stop offset="1" stop-color="#75AB42"/>
</linearGradient>
<linearGradient id="paint4_linear_243_265" x1="309.919" y1="147.082" x2="378.029" y2="147.082" gradientUnits="userSpaceOnUse">
<stop stop-color="#1C1C10"/>
<stop offset="1" stop-color="#75AB42"/>
</linearGradient>
<linearGradient id="paint5_linear_243_265" x1="314.562" y1="115.865" x2="353.978" y2="209.783" gradientUnits="userSpaceOnUse">
<stop stop-color="#EAE728"/>
<stop offset="1" stop-color="#75AB42"/>
</linearGradient>
<linearGradient id="paint6_linear_243_265" x1="375.712" y1="280.107" x2="307.677" y2="280.107" gradientUnits="userSpaceOnUse">
<stop stop-color="#1C1C10"/>
<stop offset="1" stop-color="#75AB42"/>
</linearGradient>
<linearGradient id="paint7_linear_243_265" x1="364.628" y1="314.063" x2="334.123" y2="215.045" gradientUnits="userSpaceOnUse">
<stop stop-color="#EAE728"/>
<stop offset="1" stop-color="#75AB42"/>
</linearGradient>
<clipPath id="clip0_243_265">
<rect width="684.791" height="547.833" fill="white" transform="translate(0.59082 0.000209332)"/>
</clipPath>
</defs>
</svg>
