<svg width="190" height="190" viewBox="0 0 190 190" fill="none" xmlns="http://www.w3.org/2000/svg">
<path d="M168.372 91.1614C155.883 104.574 144.899 109.889 138.884 111.953C136.343 112.822 133.625 111.243 133.102 108.609V108.535C132.663 106.368 133.915 104.247 135.988 103.491C148.701 98.886 154.697 87.3412 157.499 78.3184C158.667 74.5635 154.716 71.2944 151.213 73.0877C146.001 75.7591 141.705 75.4322 137.875 75.4789C135.372 75.5162 133.326 73.4987 133.354 71.0048V70.1548C133.382 67.8478 135.185 65.9423 137.483 65.7742L184.979 62.4583C187.538 62.2809 189.724 64.3077 189.724 66.8764V123.152C189.724 125.6 187.744 127.589 185.287 127.589H166.868C163.029 127.589 160.983 123.031 163.571 120.191C171.314 111.71 174.63 102.37 175.975 94.963C176.769 90.5823 171.389 87.8923 168.353 91.1521L168.372 91.1614Z" fill="url(#paint0_linear_245_449)"/>
<path d="M154.231 75.3212C154.941 73.8081 153.054 72.407 151.812 73.5372C141.948 82.504 133.383 86.2682 127.601 87.8374C127.601 87.8374 117.784 90.7796 109.752 88.9676C108.649 88.7154 108.164 87.4264 108.855 86.5297L127.592 62.1326L127.611 62.1513V62.1326H185.932C187.258 62.1326 187.959 63.7018 187.072 64.6918C181.449 70.9219 176.648 81.3084 176.648 81.3084C159.499 118.838 130.422 126.89 127.797 127.544C127.676 127.572 127.554 127.59 127.424 127.59H118.597C118.065 127.59 117.579 127.319 117.299 126.871L102.653 103.408C101.812 102.063 103.316 100.494 104.698 101.26C115.776 107.331 127.611 102.511 127.611 102.511C142.154 96.8976 150.392 83.5315 154.249 75.3212H154.231Z" fill="url(#paint1_linear_245_449)"/>
<path d="M21.3522 98.5602C33.8403 85.1474 44.8247 79.8327 50.8399 77.7684C53.3805 76.8998 56.0985 78.4783 56.6216 81.1123V81.187C57.0606 83.354 55.809 85.4743 53.7354 86.2308C41.0231 90.8357 35.0266 102.38 32.2244 111.403C31.0569 115.158 35.0079 118.427 38.5105 116.634C43.7225 113.963 48.0191 114.289 51.8486 114.243C54.3519 114.205 56.3974 116.223 56.3694 118.717V119.567C56.3414 121.874 54.5387 123.779 52.2409 123.947L4.74493 127.263C2.18566 127.441 0 125.414 0 122.845L0 66.5693C0 64.1221 1.98017 62.1326 4.4367 62.1326H22.856C26.6949 62.1326 28.7405 66.6907 26.1532 69.5302C18.41 78.0113 15.0941 87.3517 13.7491 94.7586C12.9552 99.1393 18.3352 101.829 21.3709 98.5695L21.3522 98.5602Z" fill="url(#paint2_linear_245_449)"/>
<path d="M35.504 114.402C34.7942 115.915 36.6809 117.316 37.9232 116.186C47.7867 107.219 56.3518 103.455 62.1336 101.885C62.1336 101.885 71.9503 98.9431 79.9831 100.755C81.0853 101.007 81.571 102.296 80.8798 103.193L62.1429 127.59L62.1242 127.572V127.59H3.81201C2.48568 127.59 1.78514 126.021 2.67248 125.031C8.29541 118.801 13.0964 108.414 13.0964 108.414C30.2454 70.8845 59.3221 62.8331 61.9468 62.1793C62.0682 62.1513 62.1896 62.1326 62.3204 62.1326H71.1471C71.6795 62.1326 72.1652 62.4034 72.4454 62.8518L87.0911 86.3149C87.9318 87.6599 86.428 89.2291 85.0456 88.4632C73.9679 82.3919 62.1336 87.2116 62.1336 87.2116C47.5905 92.8252 39.3523 106.191 35.4947 114.402H35.504Z" fill="url(#paint3_linear_245_449)"/>
<path d="M91.1612 21.3522C104.574 33.8403 109.889 44.8247 111.953 50.8399C112.822 53.3805 111.243 56.0985 108.609 56.6216H108.534C106.367 57.0606 104.247 55.809 103.491 53.7354C98.8857 41.0231 87.341 35.0266 78.3181 32.2244C74.5633 31.0569 71.2941 35.0079 73.0875 38.5105C75.7588 43.7225 75.4319 48.0191 75.4786 51.8486C75.516 54.3519 73.4985 56.3974 71.0046 56.3694H70.1546C67.8475 56.3414 65.9421 54.5387 65.7739 52.2409L62.4581 4.74493C62.2806 2.18566 64.3075 0 66.8761 0L123.152 0C125.599 0 127.589 1.98017 127.589 4.4367V22.856C127.589 26.6949 123.031 28.7405 120.191 26.1532C111.71 18.41 102.37 15.0941 94.9627 13.7491C90.5821 12.9552 87.892 18.3352 91.1518 21.3709L91.1612 21.3522Z" fill="url(#paint4_linear_245_449)"/>
<path d="M109.647 87.3307C108.657 87.8071 107.489 87.1252 107.433 86.0231C107.237 81.6984 106.368 71.8443 102.501 62.1209C96.7756 47.6993 83.5589 39.4517 75.386 35.5568C73.8729 34.8376 72.4625 36.7337 73.5927 37.976C82.5127 47.8114 86.2676 56.3485 87.8274 62.1209C87.8274 62.1209 91.4048 74.3849 91.7784 91.9542C91.7971 92.9536 90.8724 93.7196 89.8917 93.486C83.3254 91.9262 62.1133 85.1077 62.1133 62.1116V3.80872C62.1133 2.48238 63.6825 1.78185 64.6726 2.66919C70.9026 8.29212 81.2892 13.0931 81.2892 13.0931C119.071 30.3542 126.973 59.7204 127.534 61.9902C127.562 62.0929 127.571 62.1863 127.58 62.2984C127.646 64.0077 127.683 78.6535 109.628 87.34L109.647 87.3307Z" fill="url(#paint5_linear_245_449)"/>
<path d="M98.577 168.368C85.1642 155.88 79.8495 144.896 77.7853 138.881C76.9166 136.34 78.4951 133.622 81.1291 133.099H81.2039C83.3708 132.66 85.4911 133.911 86.2477 135.985C90.8525 148.697 102.397 154.694 111.42 157.496C115.175 158.664 118.444 154.713 116.651 151.21C113.979 145.998 114.306 141.701 114.26 137.872C114.222 135.369 116.24 133.323 118.734 133.351H119.584C121.891 133.379 123.796 135.182 123.964 137.48L127.28 184.976C127.458 187.535 125.431 189.72 122.862 189.72H66.5861C64.1389 189.72 62.1494 187.74 62.1494 185.284V166.864C62.1494 163.026 66.7075 160.98 69.547 163.567C78.0281 171.311 87.3685 174.626 94.7755 175.971C99.1561 176.765 101.846 171.385 98.5864 168.35L98.577 168.368Z" fill="url(#paint6_linear_245_449)"/>
<path d="M80.0955 102.391C81.0855 101.915 82.2531 102.597 82.3091 103.699C82.5053 108.024 83.374 117.878 87.2409 127.601C92.9666 142.023 106.183 150.27 114.356 154.165C115.869 154.885 117.28 152.988 116.149 151.746C107.229 141.911 103.475 133.374 101.915 127.601C101.915 127.601 98.3373 115.337 97.9637 97.7679C97.945 96.7685 98.8697 96.0026 99.8504 96.2361C106.417 97.7959 127.629 104.614 127.629 127.611V185.932C127.629 187.258 126.06 187.959 125.07 187.072C118.84 181.449 108.453 176.648 108.453 176.648C70.671 159.387 62.769 130.02 62.2086 127.751C62.1806 127.648 62.1712 127.554 62.1619 127.442C62.0965 125.733 62.0591 111.087 80.1141 102.401L80.0955 102.391Z" fill="url(#paint7_linear_245_449)"/>
<defs>
<linearGradient id="paint0_linear_245_449" x1="161.376" y1="62.8226" x2="161.376" y2="127.757" gradientUnits="userSpaceOnUse">
<stop stop-color="#1C1C10"/>
<stop offset="1" stop-color="#75AB42"/>
</linearGradient>
<linearGradient id="paint1_linear_245_449" x1="119.195" y1="103.595" x2="167.541" y2="67.6247" gradientUnits="userSpaceOnUse">
<stop stop-color="#EAE728"/>
<stop offset="1" stop-color="#75AB42"/>
</linearGradient>
<linearGradient id="paint2_linear_245_449" x1="28.3482" y1="128.365" x2="28.3482" y2="61.348" gradientUnits="userSpaceOnUse">
<stop stop-color="#1C1C10"/>
<stop offset="1" stop-color="#75AB42"/>
</linearGradient>
<linearGradient id="paint3_linear_245_449" x1="66.6637" y1="91.6576" x2="21.7082" y2="115.868" gradientUnits="userSpaceOnUse">
<stop stop-color="#EAE728"/>
<stop offset="1" stop-color="#75AB42"/>
</linearGradient>
<linearGradient id="paint4_linear_245_449" x1="61.7949" y1="28.3482" x2="129.905" y2="28.3482" gradientUnits="userSpaceOnUse">
<stop stop-color="#1C1C10"/>
<stop offset="1" stop-color="#75AB42"/>
</linearGradient>
<linearGradient id="paint5_linear_245_449" x1="66.4379" y1="-2.86968" x2="105.854" y2="91.0482" gradientUnits="userSpaceOnUse">
<stop stop-color="#EAE728"/>
<stop offset="1" stop-color="#75AB42"/>
</linearGradient>
<linearGradient id="paint6_linear_245_449" x1="127.588" y1="161.372" x2="59.5528" y2="161.372" gradientUnits="userSpaceOnUse">
<stop stop-color="#1C1C10"/>
<stop offset="1" stop-color="#75AB42"/>
</linearGradient>
<linearGradient id="paint7_linear_245_449" x1="116.504" y1="195.329" x2="85.9986" y2="96.3108" gradientUnits="userSpaceOnUse">
<stop stop-color="#EAE728"/>
<stop offset="1" stop-color="#75AB42"/>
</linearGradient>
</defs>
</svg>
