<?xml version="1.0" encoding="UTF-8" standalone="no" ?>
<!DOCTYPE svg PUBLIC "-//W3C//DTD SVG 1.1//EN" "http://www.w3.org/Graphics/SVG/1.1/DTD/svg11.dtd">
<svg xmlns="http://www.w3.org/2000/svg" xmlns:xlink="http://www.w3.org/1999/xlink" version="1.1" width="1280" height="1024" viewBox="0 0 1280 1024" xml:space="preserve">
<desc>Created with Fabric.js 5.3.0</desc>
<defs>
</defs>
<g transform="matrix(1 0 0 1 640 512)" id="background-logo"  >
<rect style="stroke: none; stroke-width: 0; stroke-dasharray: none; stroke-linecap: butt; stroke-dashoffset: 0; stroke-linejoin: miter; stroke-miterlimit: 4; fill: rgb(255,255,255); fill-opacity: 0; fill-rule: nonzero; opacity: 1;"  paint-order="stroke"  x="-640" y="-512" rx="0" ry="0" width="1280" height="1024" />
</g>
<g transform="matrix(1.9211538461538462 0 0 1.9211538461538462 640 399.24828217242543)" id="logo-logo"  >
<g style=""  paint-order="stroke"   >
		<g transform="matrix(0.9087743968088182 0 0 0.9087743968088182 64.70760979618046 0.15376858531692505)"  >
<linearGradient id="SVGID_26_84759" gradientUnits="userSpaceOnUse" gradientTransform="matrix(1 0 0 1 0 0)"  x1="172.78" y1="67.27" x2="172.78" y2="136.79">
<stop offset="0%" style="stop-color:rgb(28,28,16);stop-opacity: 1"/>
<stop offset="100%" style="stop-color:rgb(117,171,66);stop-opacity: 1"/>
</linearGradient>
<path style="stroke: none; stroke-width: 0; stroke-dasharray: none; stroke-linecap: butt; stroke-dashoffset: 0; stroke-linejoin: miter; stroke-miterlimit: 4; fill: url(#SVGID_26_84759); fill-rule: nonzero; opacity: 1;"  paint-order="stroke"  transform=" translate(-172.77316111831794, -101.73920435463066)" d="M 180.27 97.61 C 166.9 111.97 155.14000000000001 117.66 148.70000000000002 119.87 C 145.98000000000002 120.80000000000001 143.07000000000002 119.11 142.51000000000002 116.29 L 142.51000000000002 116.21000000000001 C 142.04000000000002 113.89000000000001 143.38000000000002 111.62 145.60000000000002 110.81 C 159.21000000000004 105.88 165.63000000000002 93.52000000000001 168.63000000000002 83.86 C 169.88000000000002 79.84 165.65000000000003 76.34 161.90000000000003 78.26 C 156.32000000000002 81.12 151.72000000000003 80.77000000000001 147.62000000000003 80.82000000000001 C 144.94000000000003 80.86000000000001 142.75000000000003 78.7 142.78000000000003 76.03 L 142.78000000000003 75.12 C 142.81000000000003 72.65 144.74000000000004 70.61 147.20000000000002 70.43 L 198.05 66.88000000000001 C 200.79000000000002 66.69000000000001 203.13000000000002 68.86000000000001 203.13000000000002 71.61000000000001 L 203.13000000000002 131.86 C 203.13000000000002 134.48000000000002 201.01000000000002 136.61 198.38000000000002 136.61 L 178.66000000000003 136.61 C 174.55 136.61 172.36 131.73000000000002 175.13000000000002 128.69000000000003 C 183.42000000000002 119.61000000000003 186.97000000000003 109.61000000000003 188.41000000000003 101.68000000000002 C 189.26000000000002 96.99000000000002 183.50000000000003 94.11000000000001 180.25000000000003 97.60000000000002 Z" stroke-linecap="round" />
</g>
		<g transform="matrix(0.9087743968088182 0 0 0.9087743968088182 48.721289038630005 2.842171e-14)"  >
<linearGradient id="SVGID_27_84760" gradientUnits="userSpaceOnUse" gradientTransform="matrix(1 0 0 1 0 0)"  x1="127.62" y1="110.92" x2="179.38" y2="72.41">
<stop offset="0%" style="stop-color:rgb(234,231,40);stop-opacity: 1"/>
<stop offset="100%" style="stop-color:rgb(117,171,66);stop-opacity: 1"/>
</linearGradient>
<path style="stroke: none; stroke-width: 0; stroke-dasharray: none; stroke-linecap: butt; stroke-dashoffset: 0; stroke-linejoin: miter; stroke-miterlimit: 4; fill: url(#SVGID_27_84760); fill-rule: nonzero; opacity: 1;"  paint-order="stroke"  transform=" translate(-155.18208371375331, -101.57000000000001)" d="M 165.13 80.65 C 165.89 79.03 163.87 77.53 162.54 78.74000000000001 C 151.98 88.34 142.81 92.37 136.62 94.05000000000001 C 136.62 94.05000000000001 126.11 97.20000000000002 117.51 95.26 C 116.33 94.99000000000001 115.81 93.61 116.55000000000001 92.65 L 136.61 66.53 L 136.63000000000002 66.55 L 136.63000000000002 66.53 L 199.07000000000002 66.53 C 200.49 66.53 201.24 68.21000000000001 200.29000000000002 69.27 C 194.27 75.94 189.13000000000002 87.06 189.13000000000002 87.06 C 170.77000000000004 127.24000000000001 139.64000000000001 135.86 136.83000000000004 136.56 C 136.70000000000005 136.59 136.57000000000005 136.61 136.43000000000004 136.61 L 126.98000000000003 136.61 C 126.41000000000004 136.61 125.89000000000003 136.32000000000002 125.59000000000003 135.84 L 109.91000000000003 110.72 C 109.01000000000002 109.28 110.62000000000002 107.6 112.10000000000002 108.42 C 123.96000000000002 114.92 136.63000000000002 109.76 136.63000000000002 109.76 C 152.20000000000002 103.75 161.02000000000004 89.44 165.15000000000003 80.65 Z" stroke-linecap="round" />
</g>
		<g transform="matrix(0.9087743968088182 0 0 0.9087743968088182 -64.70760979618046 -0.1537685853168398)"  >
<linearGradient id="SVGID_28_84761" gradientUnits="userSpaceOnUse" gradientTransform="matrix(1 0 0 1 0 0)"  x1="30.36" y1="137.44" x2="30.36" y2="65.69">
<stop offset="0%" style="stop-color:rgb(28,28,16);stop-opacity: 1"/>
<stop offset="100%" style="stop-color:rgb(117,171,66);stop-opacity: 1"/>
</linearGradient>
<path style="stroke: none; stroke-width: 0; stroke-dasharray: none; stroke-linecap: butt; stroke-dashoffset: 0; stroke-linejoin: miter; stroke-miterlimit: 4; fill: url(#SVGID_28_84761); fill-rule: nonzero; opacity: 1;"  paint-order="stroke"  transform=" translate(-30.366838881682085, -101.40079564536937)" d="M 22.87 105.53 C 36.24 91.17 48 85.48 54.44 83.27 C 57.16 82.33999999999999 60.07 84.03 60.629999999999995 86.85 L 60.629999999999995 86.92999999999999 C 61.099999999999994 89.24999999999999 59.76 91.52 57.53999999999999 92.33 C 43.92999999999999 97.25999999999999 37.50999999999999 109.62 34.50999999999999 119.28 C 33.25999999999999 123.3 37.48999999999999 126.8 41.239999999999995 124.88 C 46.81999999999999 122.02 51.419999999999995 122.36999999999999 55.519999999999996 122.32 C 58.199999999999996 122.27999999999999 60.38999999999999 124.44 60.36 127.11 L 60.36 128.02 C 60.33 130.49 58.4 132.53 55.94 132.71 L 5.089999999999996 136.26000000000002 C 2.349999999999996 136.45000000000002 0.009999999999996234 134.28000000000003 0.009999999999996234 131.53000000000003 L 0.009999999999996234 71.28000000000003 C 0.009999999999996234 68.66000000000003 2.1299999999999963 66.53000000000003 4.759999999999996 66.53000000000003 L 24.479999999999997 66.53000000000003 C 28.589999999999996 66.53000000000003 30.779999999999998 71.41000000000003 28.009999999999998 74.45000000000003 C 19.72 83.53000000000003 16.169999999999998 93.53000000000003 14.729999999999999 101.46000000000004 C 13.879999999999999 106.15000000000003 19.64 109.03000000000003 22.89 105.54000000000003 Z" stroke-linecap="round" />
</g>
		<g transform="matrix(0.9087743968088182 0 0 0.9087743968088182 -48.70311355069384 2.842171e-14)"  >
<linearGradient id="SVGID_29_84762" gradientUnits="userSpaceOnUse" gradientTransform="matrix(1 0 0 1 0 0)"  x1="71.38" y1="98.14" x2="23.25" y2="124.06">
<stop offset="0%" style="stop-color:rgb(234,231,40);stop-opacity: 1"/>
<stop offset="100%" style="stop-color:rgb(117,171,66);stop-opacity: 1"/>
</linearGradient>
<path style="stroke: none; stroke-width: 0; stroke-dasharray: none; stroke-linecap: butt; stroke-dashoffset: 0; stroke-linejoin: miter; stroke-miterlimit: 4; fill: url(#SVGID_29_84762); fill-rule: nonzero; opacity: 1;"  paint-order="stroke"  transform=" translate(-47.977916286246696, -101.57)" d="M 38.02 122.49 C 37.260000000000005 124.11 39.28 125.61 40.61 124.39999999999999 C 51.17 114.8 60.34 110.77 66.53 109.08999999999999 C 66.53 109.08999999999999 77.04 105.93999999999998 85.64 107.88 C 86.82000000000001 108.14999999999999 87.34 109.53 86.6 110.49 L 66.53999999999999 136.60999999999999 L 66.52 136.58999999999997 L 66.52 136.60999999999999 L 4.09 136.60999999999999 C 2.67 136.60999999999999 1.92 134.92999999999998 2.87 133.86999999999998 C 8.89 127.19999999999997 14.030000000000001 116.07999999999998 14.030000000000001 116.07999999999998 C 32.39 75.89999999999998 63.52 67.27999999999999 66.33 66.57999999999998 C 66.46 66.54999999999998 66.59 66.52999999999999 66.73 66.52999999999999 L 76.18 66.52999999999999 C 76.75 66.52999999999999 77.27000000000001 66.82 77.57000000000001 67.29999999999998 L 93.25 92.41999999999999 C 94.15 93.85999999999999 92.54 95.53999999999999 91.06 94.71999999999998 C 79.2 88.21999999999998 66.53 93.37999999999998 66.53 93.37999999999998 C 50.96 99.38999999999999 42.14 113.69999999999999 38.010000000000005 122.48999999999998 Z" stroke-linecap="round" />
</g>
		<g transform="matrix(0.9087743968088182 0 0 0.9087743968088182 0.1537685853168682 -64.70760979618044)"  >
<linearGradient id="SVGID_30_84763" gradientUnits="userSpaceOnUse" gradientTransform="matrix(1 0 0 1 0 0)"  x1="66.17" y1="30.36" x2="139.09" y2="30.36">
<stop offset="0%" style="stop-color:rgb(28,28,16);stop-opacity: 1"/>
<stop offset="100%" style="stop-color:rgb(117,171,66);stop-opacity: 1"/>
</linearGradient>
<path style="stroke: none; stroke-width: 0; stroke-dasharray: none; stroke-linecap: butt; stroke-dashoffset: 0; stroke-linejoin: miter; stroke-miterlimit: 4; fill: url(#SVGID_30_84763); fill-rule: nonzero; opacity: 1;"  paint-order="stroke"  transform=" translate(-101.73920435463066, -30.366838881682085)" d="M 97.61 22.87 C 111.97 36.24 117.66 48 119.87 54.44 C 120.80000000000001 57.16 119.11 60.07 116.29 60.629999999999995 L 116.21000000000001 60.629999999999995 C 113.89000000000001 61.099999999999994 111.62 59.76 110.81 57.53999999999999 C 105.88 43.92999999999999 93.52000000000001 37.50999999999999 83.86 34.50999999999999 C 79.84 33.25999999999999 76.34 37.48999999999999 78.26 41.239999999999995 C 81.12 46.81999999999999 80.77000000000001 51.419999999999995 80.82000000000001 55.519999999999996 C 80.86000000000001 58.199999999999996 78.7 60.38999999999999 76.03 60.36 L 75.12 60.36 C 72.65 60.33 70.61 58.4 70.43 55.94 L 66.88000000000001 5.089999999999996 C 66.69000000000001 2.349999999999996 68.86000000000001 0.009999999999996234 71.61000000000001 0.009999999999996234 L 131.86 0.009999999999996234 C 134.48000000000002 0.009999999999996234 136.61 2.1299999999999963 136.61 4.759999999999996 L 136.61 24.479999999999997 C 136.61 28.589999999999996 131.73000000000002 30.779999999999998 128.69000000000003 28.009999999999998 C 119.61000000000003 19.72 109.61000000000003 16.169999999999998 101.68000000000002 14.729999999999999 C 96.99000000000002 13.879999999999999 94.11000000000001 19.64 97.60000000000002 22.89 Z" stroke-linecap="round" />
</g>
		<g transform="matrix(0.9087743968088182 0 0 0.9087743968088182 -0.009948736104092859 -45.6881220967384)"  >
<linearGradient id="SVGID_31_84764" gradientUnits="userSpaceOnUse" gradientTransform="matrix(1 0 0 1 0 0)"  x1="71.14" y1="-3.06" x2="113.34" y2="97.49">
<stop offset="0%" style="stop-color:rgb(234,231,40);stop-opacity: 1"/>
<stop offset="100%" style="stop-color:rgb(117,171,66);stop-opacity: 1"/>
</linearGradient>
<path style="stroke: none; stroke-width: 0; stroke-dasharray: none; stroke-linecap: butt; stroke-dashoffset: 0; stroke-linejoin: miter; stroke-miterlimit: 4; fill: url(#SVGID_31_84764); fill-rule: nonzero; opacity: 1;"  paint-order="stroke"  transform=" translate(-101.55905257879297, -51.29556196876441)" d="M 117.4 93.51 C 116.34 94.02000000000001 115.09 93.29 115.03 92.11 C 114.82000000000001 87.48 113.89 76.93 109.75 66.52 C 103.62 51.08 89.47 42.25 80.72 38.08 C 79.1 37.309999999999995 77.59 39.339999999999996 78.8 40.67 C 88.35 51.2 92.37 60.34 94.03999999999999 66.52000000000001 C 94.03999999999999 66.52000000000001 97.86999999999999 79.65 98.27 98.46000000000001 C 98.28999999999999 99.53 97.3 100.35000000000001 96.25 100.10000000000001 C 89.22 98.43 66.51 91.13000000000001 66.51 66.51 L 66.51 4.09 C 66.51 2.67 68.19000000000001 1.92 69.25 2.87 C 75.92 8.89 87.03999999999999 14.030000000000001 87.03999999999999 14.030000000000001 C 127.49 32.510000000000005 135.95 63.95 136.54999999999998 66.38 C 136.57999999999998 66.49 136.58999999999997 66.58999999999999 136.6 66.71 C 136.67 68.53999999999999 136.71 84.22 117.38 93.52 Z" stroke-linecap="round" />
</g>
		<g transform="matrix(0.9087743968088182 0 0 0.9087743968088182 -0.13559309738070624 64.70760979618046)"  >
<linearGradient id="SVGID_32_84765" gradientUnits="userSpaceOnUse" gradientTransform="matrix(1 0 0 1 0 0)"  x1="136.61" y1="172.78" x2="63.77" y2="172.78">
<stop offset="0%" style="stop-color:rgb(28,28,16);stop-opacity: 1"/>
<stop offset="100%" style="stop-color:rgb(117,171,66);stop-opacity: 1"/>
</linearGradient>
<path style="stroke: none; stroke-width: 0; stroke-dasharray: none; stroke-linecap: butt; stroke-dashoffset: 0; stroke-linejoin: miter; stroke-miterlimit: 4; fill: url(#SVGID_32_84765); fill-rule: nonzero; opacity: 1;"  paint-order="stroke"  transform=" translate(-101.42079564536937, -172.77316111831794)" d="M 105.55 180.27 C 91.19 166.9 85.5 155.14000000000001 83.28999999999999 148.70000000000002 C 82.35999999999999 145.98000000000002 84.05 143.07000000000002 86.86999999999999 142.51000000000002 L 86.94999999999999 142.51000000000002 C 89.26999999999998 142.04000000000002 91.53999999999999 143.38000000000002 92.35 145.60000000000002 C 97.28 159.21000000000004 109.63999999999999 165.63000000000002 119.3 168.63000000000002 C 123.32 169.88000000000002 126.82 165.65000000000003 124.89999999999999 161.90000000000003 C 122.03999999999999 156.32000000000002 122.38999999999999 151.72000000000003 122.33999999999999 147.62000000000003 C 122.29999999999998 144.94000000000003 124.46 142.75000000000003 127.13 142.78000000000003 L 128.04 142.78000000000003 C 130.51 142.81000000000003 132.54999999999998 144.74000000000004 132.73 147.20000000000002 L 136.28 198.05 C 136.47 200.79000000000002 134.3 203.13000000000002 131.55 203.13000000000002 L 71.30000000000001 203.13000000000002 C 68.68 203.13000000000002 66.55000000000001 201.01000000000002 66.55000000000001 198.38000000000002 L 66.55000000000001 178.66000000000003 C 66.55000000000001 174.55 71.43 172.36 74.47000000000001 175.13000000000002 C 83.55000000000001 183.42000000000002 93.55000000000001 186.97000000000003 101.48000000000002 188.41000000000003 C 106.17000000000002 189.26000000000002 109.05000000000001 183.50000000000003 105.56000000000002 180.25000000000003 Z" stroke-linecap="round" />
</g>
		<g transform="matrix(0.9087743968088182 0 0 0.9087743968088182 0.028124224040197987 45.69720984070656)"  >
<linearGradient id="SVGID_33_84766" gradientUnits="userSpaceOnUse" gradientTransform="matrix(1 0 0 1 0 0)"  x1="124.74" y1="209.13" x2="92.08" y2="103.12">
<stop offset="0%" style="stop-color:rgb(234,231,40);stop-opacity: 1"/>
<stop offset="100%" style="stop-color:rgb(117,171,66);stop-opacity: 1"/>
</linearGradient>
<path style="stroke: none; stroke-width: 0; stroke-dasharray: none; stroke-linecap: butt; stroke-dashoffset: 0; stroke-linejoin: miter; stroke-miterlimit: 4; fill: url(#SVGID_33_84766); fill-rule: nonzero; opacity: 1;"  paint-order="stroke"  transform=" translate(-101.60094742120702, -151.8544380312356)" d="M 85.76 109.63 C 86.82000000000001 109.11999999999999 88.07000000000001 109.85 88.13000000000001 111.03 C 88.34 115.66 89.27000000000001 126.21000000000001 93.41000000000001 136.62 C 99.54 152.06 113.69000000000001 160.89000000000001 122.44000000000001 165.06 C 124.06000000000002 165.83 125.57000000000001 163.8 124.36000000000001 162.47 C 114.81000000000002 151.94 110.79000000000002 142.8 109.12000000000002 136.62 C 109.12000000000002 136.62 105.29000000000002 123.49000000000001 104.89000000000001 104.68 C 104.87000000000002 103.61000000000001 105.86000000000001 102.79 106.91000000000001 103.04 C 113.94000000000001 104.71000000000001 136.65 112.01 136.65 136.63 L 136.65 199.07 C 136.65 200.48999999999998 134.97 201.23999999999998 133.91 200.29 C 127.24 194.26999999999998 116.12 189.13 116.12 189.13 C 75.67 170.65 67.21000000000001 139.20999999999998 66.61000000000001 136.78 C 66.58000000000001 136.67 66.57000000000001 136.57 66.56000000000002 136.45 C 66.49000000000002 134.61999999999998 66.45000000000002 118.93999999999998 85.78000000000002 109.63999999999999 Z" stroke-linecap="round" />
</g>
</g>
</g>
<g transform="matrix(1.9211538461538462 0 0 1.9211538461538462 639.7849958683894 670.7051407415913)" id="text-logo"  >
<g style=""  paint-order="stroke"   >
		<g transform="matrix(1 0 0 1 0 0)" id="text-logo-path-0"  >
<path style="stroke: none; stroke-width: 0; stroke-dasharray: none; stroke-linecap: butt; stroke-dashoffset: 0; stroke-linejoin: miter; stroke-miterlimit: 4; fill: rgb(56,72,31); fill-rule: nonzero; opacity: 1;"  paint-order="stroke"  transform=" translate(-318.64, 19.419999999999998)" d="M 2.99 -31.49 L 2.99 0 L 11.4 0 L 11.4 -13.01 L 17.46 -13.01 L 17.46 0 L 25.87 0 L 25.87 -31.49 C 25.87 -36.8 23.38 -39.43 18.43 -39.43 L 10.43 -39.43 C 5.48 -39.4 2.99 -36.77 2.99 -31.49 Z M 11.4 -19.51 L 11.4 -32.52 C 11.4 -33.13 11.92 -33.72 12.54 -33.72 L 16.32 -33.72 C 16.93 -33.72 17.46 -33.13 17.46 -32.52 L 17.46 -19.51 Z M 46.36 0 L 54.77 0 L 54.77 -15.91 L 58.78 -15.91 C 59.54 -15.91 59.92 -15.5 59.92 -14.71 L 59.92 0 L 68.33 0 L 68.33 -15.35 C 68.33 -17.9 67.34 -19.54 65.34 -20.27 C 67.6 -21.15 68.74 -23.2 68.74 -26.4 L 68.74 -30.91 C 68.74 -36.18 66.25 -38.82 61.3 -38.82 L 46.36 -38.82 Z M 59.22 -21.77 L 54.77 -21.77 L 54.77 -33.11 L 59.22 -33.11 C 59.84 -33.11 60.36 -32.55 60.36 -31.93 L 60.36 -22.97 C 60.36 -22.35 59.84 -21.77 59.22 -21.77 Z M 88.41 -31.49 L 88.41 -7.32 C 88.41 -2.05 90.9 0.59 95.85 0.59 L 103.85 0.59 C 108.8 0.59 111.29 -2.05 111.29 -7.32 L 111.29 -31.49 C 111.29 -36.77 108.8 -39.4 103.85 -39.43 L 95.85 -39.43 C 90.9 -39.4 88.41 -36.77 88.41 -31.49 Z M 96.82 -6.36 L 96.82 -32.52 C 96.82 -33.13 97.35 -33.72 97.96 -33.72 L 101.74 -33.72 C 102.36 -33.72 102.89 -33.13 102.89 -32.52 L 102.89 -6.36 C 102.89 -5.74 102.36 -5.16 101.74 -5.16 L 97.96 -5.16 C 97.35 -5.16 96.82 -5.74 96.82 -6.36 Z M 131.73 -31.49 L 131.73 -7.32 C 131.73 -2.05 134.22 0.59 139.17 0.59 L 146.73 0.59 C 151.68 0.59 154.17 -2.05 154.17 -7.32 L 154.17 -21.59 L 143.06 -21.59 L 143.06 -15.41 L 146.2 -15.41 L 146.2 -6.36 C 146.2 -5.74 145.67 -5.16 145.06 -5.16 L 141.28 -5.16 C 140.66 -5.16 140.13 -5.74 140.13 -6.36 L 140.13 -32.52 C 140.13 -33.13 140.66 -33.72 141.28 -33.72 L 145.06 -33.72 C 145.67 -33.72 146.2 -33.13 146.2 -32.52 L 146.2 -27.83 L 154.17 -27.83 L 154.17 -31.49 C 154.17 -36.8 151.68 -39.43 146.73 -39.43 L 139.17 -39.43 C 134.22 -39.4 131.73 -36.77 131.73 -31.49 Z M 170.47 -38.82 L 178.82 -14.15 L 178.82 0 L 187.23 0 L 187.23 -14.15 L 195.55 -38.82 L 187.64 -38.82 L 183.01 -22.62 L 178.41 -38.82 Z M 213.4 -31.49 L 213.4 0 L 221.81 0 L 221.81 -13.01 L 227.87 -13.01 L 227.87 0 L 236.28 0 L 236.28 -31.49 C 236.28 -36.8 233.79 -39.43 228.84 -39.43 L 220.84 -39.43 C 215.89 -39.4 213.4 -36.77 213.4 -31.49 Z M 221.81 -19.51 L 221.81 -32.52 C 221.81 -33.13 222.34 -33.72 222.95 -33.72 L 226.73 -33.72 C 227.35 -33.72 227.87 -33.13 227.87 -32.52 L 227.87 -19.51 Z M 283.15 -7.32 C 283.15 -2.05 285.64 0.59 290.59 0.59 L 297.68 0.59 C 302.64 0.59 305.13 -2.05 305.13 -7.32 L 305.13 -15.67 C 305.13 -20.86 302.64 -23.5 297.68 -23.58 L 292.29 -23.58 C 291.62 -23.58 291.15 -24.17 291.15 -24.79 L 291.15 -31.67 C 291.15 -32.34 291.68 -32.87 292.29 -32.87 L 295.58 -32.87 C 296.25 -32.87 296.72 -32.29 296.72 -31.67 L 296.72 -28.62 L 304.72 -28.62 L 304.72 -31.49 C 304.72 -36.8 302.23 -39.43 297.27 -39.43 L 290.59 -39.43 C 285.64 -39.4 283.15 -36.77 283.15 -31.49 L 283.15 -23.76 C 283.15 -18.49 285.64 -15.85 290.59 -15.85 L 296.01 -15.85 C 296.63 -15.85 297.16 -15.26 297.16 -14.65 L 297.16 -7.03 C 297.16 -6.36 296.63 -5.83 296.01 -5.83 L 292.29 -5.83 C 291.62 -5.83 291.15 -6.42 291.15 -7.03 L 291.15 -11.34 L 283.15 -11.34 Z M 324.88 -31.49 L 324.88 0 L 333.29 0 L 333.29 -13.01 L 339.36 -13.01 L 339.36 0 L 347.77 0 L 347.77 -31.49 C 347.77 -36.8 345.28 -39.43 340.32 -39.43 L 332.33 -39.43 C 327.37 -39.4 324.88 -36.77 324.88 -31.49 Z M 333.29 -19.51 L 333.29 -32.52 C 333.29 -33.13 333.82 -33.72 334.44 -33.72 L 338.21 -33.72 C 338.83 -33.72 339.36 -33.13 339.36 -32.52 L 339.36 -19.51 Z M 368.2 -31.49 L 368.2 0 L 376.61 0 L 376.61 -32.23 C 376.61 -32.84 377.13 -33.43 377.75 -33.43 L 381 -33.43 C 381.62 -33.43 382.11 -32.84 382.11 -32.23 L 382.11 0 L 390.52 0 L 390.52 -32.23 C 390.52 -32.84 391.05 -33.43 391.66 -33.43 L 394.92 -33.43 C 395.53 -33.43 396.06 -32.84 396.06 -32.23 L 396.06 0 L 404.44 0 L 404.44 -31.49 C 404.44 -36.8 401.95 -39.43 397 -39.43 L 392.57 -39.43 C 389.56 -39.4 387.48 -38.44 386.33 -36.53 C 385.1 -38.47 383.02 -39.43 380.09 -39.43 L 375.64 -39.43 C 370.69 -39.4 368.2 -36.77 368.2 -31.49 Z M 424.46 0 L 432.87 0 L 432.87 -15.91 L 436.88 -15.91 C 437.64 -15.91 438.02 -15.5 438.02 -14.71 L 438.02 0 L 446.43 0 L 446.43 -15.35 C 446.43 -17.9 445.44 -19.54 443.44 -20.27 C 445.7 -21.15 446.84 -23.2 446.84 -26.4 L 446.84 -30.91 C 446.84 -36.18 444.35 -38.82 439.4 -38.82 L 424.46 -38.82 Z M 437.32 -21.77 L 432.87 -21.77 L 432.87 -33.11 L 437.32 -33.11 C 437.94 -33.11 438.46 -32.55 438.46 -31.93 L 438.46 -22.97 C 438.46 -22.35 437.94 -21.77 437.32 -21.77 Z M 466.51 0 L 474.92 0 L 474.92 -38.82 L 466.51 -38.82 Z M 495.41 0 L 510.85 0 C 515.8 0 518.29 -2.64 518.29 -7.91 L 518.29 -30.91 C 518.29 -36.18 515.8 -38.82 510.85 -38.82 L 495.41 -38.82 Z M 508.74 -5.77 L 503.82 -5.77 L 503.82 -33.11 L 508.74 -33.11 C 509.36 -33.11 509.89 -32.55 509.89 -31.93 L 509.89 -6.97 C 509.89 -6.36 509.36 -5.77 508.74 -5.77 Z M 538.78 0 L 554.22 0 C 559.18 0 561.67 -2.64 561.67 -7.91 L 561.67 -30.91 C 561.67 -36.18 559.18 -38.82 554.22 -38.82 L 538.78 -38.82 Z M 552.11 -5.77 L 547.19 -5.77 L 547.19 -33.11 L 552.11 -33.11 C 552.73 -33.11 553.26 -32.55 553.26 -31.93 L 553.26 -6.97 C 553.26 -6.36 552.73 -5.77 552.11 -5.77 Z M 582.16 0 L 590.56 0 L 590.56 -15.23 L 597.21 -15.23 L 597.21 0 L 605.62 0 L 605.62 -38.82 L 597.21 -38.82 L 597.21 -22.56 L 590.56 -22.56 L 590.56 -38.82 L 582.16 -38.82 Z M 625.88 0 L 634.29 0 L 634.29 -38.82 L 625.88 -38.82 Z" stroke-linecap="round" />
</g>
</g>
</g>
<g transform="matrix(1.9211538461538462 0 0 1.9211538461538462 640.747399696713 783.7882185175854)" id="tagline-ef18f77b-3df9-4f3b-a49c-7e52c4349f0b-logo"  >
<g style=""  paint-order="stroke"   >
		<g transform="matrix(1 0 0 1 -5.684342e-14 0)" id="tagline-ef18f77b-3df9-4f3b-a49c-7e52c4349f0b-logo-path-0"  >
<path style="stroke: none; stroke-width: 0; stroke-dasharray: none; stroke-linecap: butt; stroke-dashoffset: 0; stroke-linejoin: miter; stroke-miterlimit: 4; fill: rgb(107,141,66); fill-rule: nonzero; opacity: 1;"  paint-order="stroke"  transform=" translate(-313.055, 7.495)" d="M 5.15 0 L 1.77 0 L 1.77 -15 L 6.92 -15 Q 9.38 -15 11.13 -13.94 Q 12.88 -12.88 12.88 -10.17 L 12.88 -10.17 Q 12.88 -7.52 11.13 -6.3 Q 9.38 -5.08 7.01 -5.08 L 7.01 -5.08 L 5.15 -5.08 L 5.15 0 Z M 5.15 -12.3 L 5.15 -7.77 L 6.81 -7.77 Q 9.57 -7.77 9.57 -10.17 L 9.57 -10.17 Q 9.57 -11.34 8.83 -11.82 Q 8.1 -12.3 6.72 -12.3 L 6.72 -12.3 L 5.15 -12.3 Z M 30.94 -12.3 L 30.94 -8.1 L 32.68 -8.1 Q 35.42 -8.1 35.42 -10.33 L 35.42 -10.33 Q 35.42 -11.43 34.72 -11.87 Q 34.02 -12.3 32.68 -12.3 L 32.68 -12.3 L 30.94 -12.3 Z M 30.94 -5.41 L 30.94 0 L 27.55 0 L 27.55 -15 L 32.96 -15 Q 35.35 -15 37.04 -14 Q 38.73 -12.99 38.73 -10.33 L 38.73 -10.33 Q 38.73 -8.67 38 -7.61 Q 37.26 -6.55 36.06 -6 L 36.06 -6 L 39.47 0 L 35.67 0 L 32.8 -5.41 L 30.94 -5.41 Z M 59.82 0.28 L 59.82 0.28 Q 56.79 0.28 54.9 -1.81 Q 53.02 -3.89 53.02 -7.57 L 53.02 -7.57 Q 53.02 -11.25 54.9 -13.26 Q 56.79 -15.27 59.82 -15.27 L 59.82 -15.27 Q 62.86 -15.27 64.75 -13.25 Q 66.63 -11.22 66.63 -7.57 L 66.63 -7.57 Q 66.63 -3.89 64.75 -1.81 Q 62.86 0.28 59.82 0.28 Z M 59.82 -2.65 L 59.82 -2.65 Q 61.36 -2.65 62.26 -3.98 Q 63.16 -5.31 63.16 -7.57 L 63.16 -7.57 Q 63.16 -9.8 62.26 -11.07 Q 61.36 -12.35 59.82 -12.35 L 59.82 -12.35 Q 58.28 -12.35 57.39 -11.07 Q 56.49 -9.8 56.49 -7.57 L 56.49 -7.57 Q 56.49 -5.31 57.39 -3.98 Q 58.28 -2.65 59.82 -2.65 Z M 86.11 0.28 L 86.11 0.28 Q 84.64 0.28 83.17 -0.28 Q 81.7 -0.83 80.57 -1.89 L 80.57 -1.89 L 82.5 -4.21 Q 83.31 -3.52 84.3 -3.08 Q 85.28 -2.65 86.2 -2.65 L 86.2 -2.65 Q 88.3 -2.65 88.3 -4.09 L 88.3 -4.09 Q 88.3 -4.81 87.71 -5.14 Q 87.12 -5.47 86.14 -5.89 L 86.14 -5.89 L 84.18 -6.72 Q 83.03 -7.18 82.1 -8.18 Q 81.17 -9.18 81.17 -10.81 L 81.17 -10.81 Q 81.17 -12.67 82.66 -13.97 Q 84.16 -15.27 86.5 -15.27 L 86.5 -15.27 Q 87.79 -15.27 89.08 -14.77 Q 90.37 -14.26 91.33 -13.29 L 91.33 -13.29 L 89.61 -11.15 Q 88.87 -11.73 88.14 -12.04 Q 87.4 -12.35 86.5 -12.35 L 86.5 -12.35 Q 85.63 -12.35 85.11 -11.99 Q 84.59 -11.64 84.59 -10.99 L 84.59 -10.99 Q 84.59 -10.3 85.25 -9.96 Q 85.91 -9.61 86.87 -9.22 L 86.87 -9.22 L 88.8 -8.44 Q 90.16 -7.89 90.97 -6.92 Q 91.77 -5.96 91.77 -4.37 L 91.77 -4.37 Q 91.77 -2.51 90.29 -1.12 Q 88.8 0.28 86.11 0.28 Z M 109.78 0 L 106.4 0 L 106.4 -15 L 111.55 -15 Q 114.01 -15 115.76 -13.94 Q 117.51 -12.88 117.51 -10.17 L 117.51 -10.17 Q 117.51 -7.52 115.76 -6.3 Q 114.01 -5.08 111.64 -5.08 L 111.64 -5.08 L 109.78 -5.08 L 109.78 0 Z M 109.78 -12.3 L 109.78 -7.77 L 111.44 -7.77 Q 114.2 -7.77 114.2 -10.17 L 114.2 -10.17 Q 114.2 -11.34 113.46 -11.82 Q 112.72 -12.3 111.34 -12.3 L 111.34 -12.3 L 109.78 -12.3 Z M 141.79 0 L 132.18 0 L 132.18 -15 L 141.56 -15 L 141.56 -12.14 L 135.56 -12.14 L 135.56 -9.13 L 140.67 -9.13 L 140.67 -6.3 L 135.56 -6.3 L 135.56 -2.85 L 141.79 -2.85 L 141.79 0 Z M 160.24 -12.3 L 160.24 -8.1 L 161.99 -8.1 Q 164.73 -8.1 164.73 -10.33 L 164.73 -10.33 Q 164.73 -11.43 164.02 -11.87 Q 163.32 -12.3 161.99 -12.3 L 161.99 -12.3 L 160.24 -12.3 Z M 160.24 -5.41 L 160.24 0 L 156.86 0 L 156.86 -15 L 162.26 -15 Q 164.66 -15 166.35 -14 Q 168.04 -12.99 168.04 -10.33 L 168.04 -10.33 Q 168.04 -8.67 167.3 -7.61 Q 166.57 -6.55 165.37 -6 L 165.37 -6 L 168.77 0 L 164.98 0 L 162.1 -5.41 L 160.24 -5.41 Z M 186.41 0 L 183.03 0 L 183.03 -15 L 186.41 -15 L 186.41 0 Z M 208.36 0 L 204.95 0 L 204.95 -12.14 L 200.84 -12.14 L 200.84 -15 L 212.47 -15 L 212.47 -12.14 L 208.36 -12.14 L 208.36 0 Z M 232.44 0 L 229.06 0 L 229.06 -5.34 L 224.53 -15 L 228.16 -15 L 229.49 -11.55 Q 229.82 -10.7 230.11 -9.9 Q 230.41 -9.11 230.71 -8.23 L 230.71 -8.23 L 230.8 -8.23 Q 231.13 -9.11 231.44 -9.9 Q 231.75 -10.7 232.07 -11.55 L 232.07 -11.55 L 233.43 -15 L 236.97 -15 L 232.44 -5.34 L 232.44 0 Z M 273.63 0 L 270.23 0 L 270.23 -12.14 L 266.11 -12.14 L 266.11 -15 L 277.75 -15 L 277.75 -12.14 L 273.63 -12.14 L 273.63 0 Z M 295.55 0 L 292.17 0 L 292.17 -15 L 295.55 -15 L 295.55 -9.22 L 300.72 -9.22 L 300.72 -15 L 304.13 -15 L 304.13 0 L 300.72 0 L 300.72 -6.26 L 295.55 -6.26 L 295.55 0 Z M 323.13 -12.3 L 323.13 -8.1 L 324.87 -8.1 Q 327.61 -8.1 327.61 -10.33 L 327.61 -10.33 Q 327.61 -11.43 326.91 -11.87 Q 326.21 -12.3 324.87 -12.3 L 324.87 -12.3 L 323.13 -12.3 Z M 323.13 -5.41 L 323.13 0 L 319.75 0 L 319.75 -15 L 325.15 -15 Q 327.54 -15 329.23 -14 Q 330.92 -12.99 330.92 -10.33 L 330.92 -10.33 Q 330.92 -8.67 330.19 -7.61 Q 329.45 -6.55 328.26 -6 L 328.26 -6 L 331.66 0 L 327.86 0 L 324.99 -5.41 L 323.13 -5.41 Z M 352.01 0.28 L 352.01 0.28 Q 348.98 0.28 347.09 -1.81 Q 345.21 -3.89 345.21 -7.57 L 345.21 -7.57 Q 345.21 -11.25 347.09 -13.26 Q 348.98 -15.27 352.01 -15.27 L 352.01 -15.27 Q 355.05 -15.27 356.94 -13.25 Q 358.82 -11.22 358.82 -7.57 L 358.82 -7.57 Q 358.82 -3.89 356.94 -1.81 Q 355.05 0.28 352.01 0.28 Z M 352.01 -2.65 L 352.01 -2.65 Q 353.56 -2.65 354.45 -3.98 Q 355.35 -5.31 355.35 -7.57 L 355.35 -7.57 Q 355.35 -9.8 354.45 -11.07 Q 353.56 -12.35 352.01 -12.35 L 352.01 -12.35 Q 350.47 -12.35 349.58 -11.07 Q 348.68 -9.8 348.68 -7.57 L 348.68 -7.57 Q 348.68 -5.31 349.58 -3.98 Q 350.47 -2.65 352.01 -2.65 Z M 379.64 0.28 L 379.64 0.28 Q 376.72 0.28 375.18 -1.45 Q 373.63 -3.17 373.63 -6.95 L 373.63 -6.95 L 373.63 -15 L 377.04 -15 L 377.04 -6.6 Q 377.04 -4.39 377.71 -3.52 Q 378.37 -2.65 379.64 -2.65 L 379.64 -2.65 Q 380.9 -2.65 381.59 -3.52 Q 382.28 -4.39 382.28 -6.6 L 382.28 -6.6 L 382.28 -15 L 385.55 -15 L 385.55 -6.95 Q 385.55 -3.17 384.04 -1.45 Q 382.54 0.28 379.64 0.28 Z M 407.72 0.28 L 407.72 0.28 Q 404.64 0.28 402.51 -1.68 Q 400.38 -3.63 400.38 -7.41 L 400.38 -7.41 Q 400.38 -9.89 401.37 -11.65 Q 402.36 -13.41 404.03 -14.34 Q 405.7 -15.27 407.7 -15.27 L 407.7 -15.27 Q 409.31 -15.27 410.49 -14.67 Q 411.68 -14.08 412.41 -13.32 L 412.41 -13.32 L 410.64 -11.15 Q 410.07 -11.66 409.42 -12.01 Q 408.78 -12.35 407.81 -12.35 L 407.81 -12.35 Q 406.06 -12.35 404.96 -11.06 Q 403.86 -9.78 403.86 -7.52 L 403.86 -7.52 Q 403.86 -5.2 404.9 -3.92 Q 405.95 -2.65 408.07 -2.65 L 408.07 -2.65 Q 409.1 -2.65 409.68 -3.1 L 409.68 -3.1 L 409.68 -5.68 L 407.19 -5.68 L 407.19 -8.44 L 412.67 -8.44 L 412.67 -1.54 Q 411.88 -0.78 410.58 -0.25 Q 409.28 0.28 407.72 0.28 Z M 431.23 0 L 427.85 0 L 427.85 -15 L 431.23 -15 L 431.23 -9.22 L 436.4 -9.22 L 436.4 -15 L 439.81 -15 L 439.81 0 L 436.4 0 L 436.4 -6.26 L 431.23 -6.26 L 431.23 0 Z M 492.15 0 L 488.77 0 L 488.77 -15 L 492.15 -15 L 492.15 -9.22 L 497.33 -9.22 L 497.33 -15 L 500.73 -15 L 500.73 0 L 497.33 0 L 497.33 -6.26 L 492.15 -6.26 L 492.15 0 Z M 525.96 0 L 516.35 0 L 516.35 -15 L 525.73 -15 L 525.73 -12.14 L 519.73 -12.14 L 519.73 -9.13 L 524.84 -9.13 L 524.84 -6.3 L 519.73 -6.3 L 519.73 -2.85 L 525.96 -2.85 L 525.96 0 Z M 544.55 -7.59 L 544.55 -7.59 L 544.18 -6.21 L 547.38 -6.21 L 547.03 -7.59 Q 546.71 -8.72 546.41 -9.98 Q 546.11 -11.25 545.81 -12.42 L 545.81 -12.42 L 545.72 -12.42 Q 545.45 -11.22 545.16 -9.97 Q 544.87 -8.72 544.55 -7.59 Z M 552.58 0 L 548.99 0 L 548.07 -3.56 L 543.49 -3.56 L 542.57 0 L 539.12 0 L 543.81 -15 L 547.88 -15 L 552.58 0 Z M 575.6 0 L 566.28 0 L 566.28 -15 L 569.66 -15 L 569.66 -2.85 L 575.6 -2.85 L 575.6 0 Z M 593.84 0 L 590.43 0 L 590.43 -12.14 L 586.32 -12.14 L 586.32 -15 L 597.95 -15 L 597.95 -12.14 L 593.84 -12.14 L 593.84 0 Z M 615.76 0 L 612.38 0 L 612.38 -15 L 615.76 -15 L 615.76 -9.22 L 620.93 -9.22 L 620.93 -15 L 624.34 -15 L 624.34 0 L 620.93 0 L 620.93 -6.26 L 615.76 -6.26 L 615.76 0 Z" stroke-linecap="round" />
</g>
</g>
</g>
</svg>